<svg xmlns="http://www.w3.org/2000/svg" viewBox="0 0 1600 1600" width="1600" height="1600"><path fill="#FFF" d="M0 0h1600v1600H0z"/><g transform="translate(420.0 188.0) rotate(0.0 559.5 665.0) scale(0.9976231783793037 0.9988464450078706)"><svg width="1121.666" height="1331.536" viewBox="0 0 1121.666 1331.536"><path d="M412.687 692.153c43.02 19.494 86.339 40.008 86.339 40.008 63.653 14.046 66.496-42.81 70.964-100.674l-111.147-55.535z" fill="#fac0c3"/><path d="M492.475 593.702c23.448-4.266 58.021-9.205 80.292-6.671s21.714 28.368-3.549 34.308-48.619 9.287-51.775 9.719c-17.73 2.43-52.042-32.43-24.968-37.356z" fill="#fac0c3"/><path d="M486.38 658.669c-.507 0-1.011-.016-1.515-.047a1.499 1.499 0 0 1-1.404-1.59 1.496 1.496 0 0 1 1.59-1.404c6.874.424 14.171-2.483 20.553-8.193 6.479-5.798 10.164-12.802 10.342-16.45a1.5 1.5 0 0 1 1.294-1.413c1.019-.14 25.26-3.492 51.635-9.693a1.5 1.5 0 0 1 .686 2.92c-23.598 5.548-45.504 8.829-50.757 9.582-.852 5.094-5.277 11.989-11.2 17.289-6.526 5.84-14.006 8.999-21.224 8.999z" fill="#25242e"/><path d="M547.808 656.153c36.873 18.785 48.05 9.342 52.397 1.186 8.969-16.827-14.638-33.412-26.081-38.573-18.137-8.179-29.014-1.289-31.503 5.094-3.812 9.775.031 22.284 23.767 34.027z" fill="#fac0c3"/><path d="M566.389 659.388c-.046 0-.093-.002-.141-.007l-18.58-1.735a1.5 1.5 0 1 1 .279-2.987l11.322 1.057c-11.271-6.768-23.689-17.931-18.046-32.401 1.358-3.483 4.529-6.457 8.699-8.16 4.751-1.94 12.914-3.126 24.819 2.243a58.738 58.738 0 0 1 4.568 2.325 1.5 1.5 0 1 1-1.469 2.615 55.51 55.51 0 0 0-4.332-2.206c-10.936-4.931-18.245-3.918-22.451-2.2-3.362 1.373-5.993 3.792-7.038 6.472-4.436 11.375 3.529 22.488 23.035 32.138a1.5 1.5 0 0 1-.665 2.846z" fill="#25242e"/><path d="M533.194 683.019c36.873 18.785 48.05 9.342 52.397 1.186 8.969-16.827-14.638-33.412-26.081-38.573-18.137-8.179-29.014-1.289-31.503 5.095-3.812 9.775.031 22.284 23.767 34.027z" fill="#fac0c3"/><path d="M551.773 686.255c-.224 0-.45-.05-.664-.156-12.055-5.964-31.268-18.561-24.5-35.917 1.358-3.483 4.529-6.457 8.699-8.16 4.75-1.94 12.913-3.126 24.818 2.243 5.261 2.373 11.243 6.208 16.001 10.261 6.424 5.471 10.651 11.305 12.224 16.871a1.5 1.5 0 0 1-2.887.815c-3.143-11.124-17.613-21.172-26.572-25.213-10.934-4.931-18.244-3.918-22.451-2.2-3.362 1.373-5.993 3.792-7.038 6.472-4.436 11.375 3.529 22.488 23.035 32.138a1.5 1.5 0 0 1 .679 2.01c-.26.529-.792.836-1.344.836z" fill="#25242e"/><path d="M515.426 708.383c36.873 18.785 48.05 9.342 52.397 1.186 8.969-16.827-14.638-33.412-26.081-38.573-18.137-8.179-29.014-1.289-31.503 5.095-3.812 9.775.031 22.284 23.767 34.027z" fill="#fac0c3"/><path d="M534.005 711.618c-.224 0-.45-.05-.664-.156-12.055-5.964-31.267-18.561-24.5-35.917 1.358-3.483 4.529-6.457 8.7-8.16 4.752-1.94 12.914-3.125 24.818 2.243 7.901 3.563 28.504 16.209 28.947 31.729a1.5 1.5 0 0 1-1.457 1.542 1.514 1.514 0 0 1-1.542-1.457c-.354-12.415-16.86-24.426-27.182-29.08-10.934-4.931-18.244-3.918-22.45-2.201-3.362 1.373-5.994 3.792-7.039 6.473-4.436 11.375 3.53 22.488 23.035 32.138a1.5 1.5 0 0 1 .679 2.01 1.5 1.5 0 0 1-1.345.836z" fill="#25242e"/><path d="M499.025 732.161c36.873 18.785 48.009 9.403 52.357 1.246 8.969-16.827-14.638-33.412-26.081-38.573-18.137-8.179-29.014-1.289-31.503 5.094-3.812 9.775.031 22.284 23.767 34.027z" fill="#fac0c3"/><path d="M517.564 735.457c-.224 0-.45-.05-.664-.156-12.055-5.964-31.268-18.561-24.5-35.917 1.358-3.483 4.529-6.457 8.699-8.16 4.751-1.94 12.914-3.126 24.819 2.243 10.912 4.921 27.606 17.121 28.875 30.565a1.498 1.498 0 1 1-2.986.281c-1.141-12.084-17.241-23.657-27.122-28.112-10.934-4.931-18.244-3.918-22.451-2.2-3.362 1.373-5.993 3.792-7.038 6.472-4.436 11.375 3.529 22.488 23.035 32.138a1.502 1.502 0 0 1-.667 2.846z" fill="#25242e"/><path d="m458.843 575.952-125.28-63.549 53.613-110.488-74.664-141.507c-29.926 24.629-34.45 29.307-62.834 82.523 0 0-34.545 63.081-47.082 88.119-33.747 67.394-42.15 143.972 37.835 190.902 18.564 10.892 81.762 45.355 108.643 59.976a64.014 64.014 0 0 0 26.163 7.627l37.449 2.598 34.411 15.755 45.691-114.994z" fill="#fff"/><path d="M412.686 693.653a1.5 1.5 0 0 1-1.393-2.054l46.156-116.2a1.5 1.5 0 1 1 2.788 1.108l-46.156 116.2a1.5 1.5 0 0 1-1.395.946z" fill="#25242e"/><path d="M447.097 709.407c-.213 0-.426-.046-.625-.136L412.31 693.63l-37.177-2.579a65.098 65.098 0 0 1-26.777-7.806c-26.477-14.402-90.071-49.078-108.685-60-37.252-21.857-58.213-51.77-62.299-88.907-3.368-30.61 4.667-65.587 23.882-103.961 12.406-24.776 46.762-87.537 47.108-88.168 18.809-35.266 30.787-54.847 47.964-70.704a1.5 1.5 0 1 1 2.035 2.205c-16.86 15.564-28.705 34.949-47.36 69.926-.353.645-34.683 63.358-47.064 88.085-53.446 106.733-9.242 161.656 37.253 188.936 18.576 10.899 82.136 45.557 108.6 59.952a62.096 62.096 0 0 0 25.551 7.448l37.449 2.598a1.5 1.5 0 0 1 .521.133l32.975 15.098 44.6-112.247-32.713-16.345-125.288-63.553a1.5 1.5 0 0 1-.671-1.993l53.613-110.488a1.501 1.501 0 0 1 2.699 1.309l-52.97 109.162 123.966 62.883 33.937 16.957a1.5 1.5 0 0 1 .724 1.896l-45.691 114.994a1.501 1.501 0 0 1-1.395.946z" fill="#25242e"/><path d="M313.507 556.842a1.5 1.5 0 0 1-1.358-2.135l20.055-42.939a1.5 1.5 0 0 1 2.858.571l1.207 28.147a1.5 1.5 0 0 1-1.434 1.563 1.506 1.506 0 0 1-1.563-1.434l-.944-22.021-17.46 37.383a1.504 1.504 0 0 1-1.361.865z" fill="#25242e"/><path d="m378.163 44.232 21.53-12.55c-20.578-21.959-43.729-27.672-70.791-8.706z" fill="#f05467"/><path d="M395.08 65.259c-24.117-38.027-59.762-53.474-98.705-24.477-40.293 30.003-32.81 71.074-11.595 106.608-18.054-5.451-25.709 15.295-16.15 28.121 7.073 9.49 24.515 11.755 35.886-5.377 34.267 23.842 76.498 12.662 103.042-12.931 32.498-31.334 28.46-81.138-12.478-91.944z" fill="#fac0c3"/><path d="M284.781 98.406s7.858 14.924 14.29 29.9c9.016 20.995-6.36 28.341-14.29 19.083-12.428-16.096-18.256-33.2-19.251-51.042z" fill="#f05467"/><g fill="#25242e"><path d="M280.601 173.348a1.5 1.5 0 0 1-1.473-1.793l3.027-15.201a1.501 1.501 0 0 1 2.942.586l-3.027 15.201a1.5 1.5 0 0 1-1.469 1.207z"/><path d="M288.93 167.147c-.091 0-.184-.008-.277-.026l-15.033-2.802a1.5 1.5 0 0 1 .55-2.95l15.033 2.802a1.5 1.5 0 0 1-.273 2.976zm51.453-69.298a1.5 1.5 0 0 1-1.395-.949c-3.508-8.866-2.051-20.715 9.439-25.78a1.5 1.5 0 0 1 1.21 2.746c-7.009 3.089-12.157 11.069-7.86 21.931a1.5 1.5 0 0 1-1.394 2.052z"/><path d="M351.438 86.209c4.34 6.077 5.655 12.577 2.937 14.518s-8.439-1.413-12.779-7.49c-1.735-2.43-2.987-4.927-3.69-7.173 1.073-3.695 3.694-7.897 4.475-7.631 4.544 1.544 7.639 5.791 9.057 7.776zm22.523-15.366a1.5 1.5 0 0 1-1.395-.949c-3.237-8.181-2.3-18.95 7.09-24.569a1.499 1.499 0 1 1 1.54 2.574c-7.879 4.714-8.611 13.889-5.841 20.891a1.5 1.5 0 0 1-1.394 2.053z"/><path d="M385.016 59.203c4.34 6.077 5.655 12.577 2.937 14.518s-8.439-1.413-12.779-7.49c-1.735-2.43-2.987-4.927-3.69-7.173 1.073-3.695 3.694-7.897 4.475-7.631 4.544 1.545 7.639 5.791 9.057 7.776z"/></g><path d="M385.407 105.474c-8.146-8.128 9.447-25.347 16.866-16.523 4.805 2.05 7.267 9.992 1.481 16.506-5.577 6.279-16.496 6.662-18.347.017z" fill="#f08d92"/><path d="M371.885 113.357a1.5 1.5 0 0 1-.45-2.931c8.277-2.606 25.081-10.559 29.437-22.008a1.501 1.501 0 0 1 2.805 1.066c-4.754 12.498-21.937 20.843-31.34 23.803a1.52 1.52 0 0 1-.452.07z" fill="#25242e"/><path d="M321.082 24.303c-61.021 4.851-84.511 58.571-73.277 114.383l63.608-49.735c1.149-8.846 2.809-18.166 4.085-22.889l3.75 17.669 8.82-6.785c2.264-10.589 2.806-21.764 2.46-33.239 6.142 6.646 9.621 14.457 10.084 23.589l18.718-14.398c1.941-13.447-4.02-23.83-17.884-31.149 22.278-11.526 43.609-2.223 54.699 12l6.127-3.572c-13.02-28.284-51.883-48.002-81.19-5.874z" fill="#f05467"/><path d="M265.53 126.552a1.501 1.501 0 0 1-.916-2.69l26.719-20.553a1.501 1.501 0 0 1 1.83 2.378l-26.719 20.553a1.485 1.485 0 0 1-.914.312zM396.147 35.25c-.446 0-.888-.198-1.184-.578-10.763-13.805-31.272-22.742-52.827-11.59a1.499 1.499 0 1 1-1.378-2.664c23.083-11.943 45.046-2.373 56.571 12.41a1.5 1.5 0 0 1-1.182 2.422z" fill="#25242e"/><path d="m206.146 1035.783-80.517 78.135c-48.189 63.121-12.11 93.969 37.765 119.532l118.376-71.94z" fill="#fac0c3"/><path d="M263.203 1221.513s183.782-134.286 234.794-178.315c35.234-30.411 46.42-53.238 65.929-100.377 19.51-47.139 110.14-309.05 127.052-376.556-50.932-87.758-199.228-147.444-242.391-19.243-10.173 25.951-5.254 72.58 18.184 96.758-31.293 88.203-82.951 231.215-82.951 231.215-59.032 41.267-118.631 102.845-177.674 160.789z" fill="#56b1f0"/><path d="m246.337 1163.327-1.601-2.537c1.435-.905 143.94-90.791 185.115-116.679 60.301-37.913 86.083-57.098 118.966-152.378 5.716-16.563 20.631-61.84 36.421-109.776 17.808-54.061 36.223-109.963 45.993-138.587a1.5 1.5 0 0 1 2.839.969c-9.765 28.609-28.177 84.503-45.983 138.556-15.793 47.946-30.711 93.233-36.435 109.816-33.215 96.241-59.269 115.626-120.206 153.939-41.171 25.888-183.675 115.772-185.109 116.677z" fill="#25242e"/><path d="M205.157 1308.418c6.756 18.943-21.868 21.516-36.977 21.516-29.379 0-45.617-14.586-47.553-31.404-10.532-5.17-17.77-9.934-29.552-28.521-12.557-19.811-12.506-35.822-12.506-35.822s-20.058-15.553-27.503-27.299-4.945-30.292-4.945-30.292-18.172-6.18-34.842-32.479c-16.669-26.299-9.842-42.671 4.145-47.359 18.493-6.198 50.826-11.324 61.799 3.274 6.07 8.075 55.203 118.921 76.811 193.17 7.126 24.477 49.112 9.578 51.123 15.216z" fill="#fff"/><path d="m178.245 1243.656.585 38.918s13.43 7.282 19.224 10.722c7.148 4.244 10.213 9.192 7.103 15.122-48.976 0-59.954-3.633-71.362-25.351-29.237-55.659-53.768-121.843-55.973-128.026-14.599-40.938 5.775-44.251-.64-55.132 17.117.053 58.381 2.193 58.381 2.193l5.467-19.95c3.035-8.657 15.46-9.509 19.024-1.045 1.062 2.523 1.203 5.464-.31 8.82-2.119 4.699-11.399 18.036-16.531 24.372-13.107 16.183-33.674 33.289-25.863 58.81 3.598 11.755 26.582 28.87 33.859 43.432l7.294-6.055c6.879-5.71 17.152-4.482 22.508 2.692l6.564 8.791c3.642 4.877 2.807 11.748-1.895 15.599z" fill="#25242e"/><path d="M189.884 1298.552a1.5 1.5 0 0 1-.492-.083l-21.841-7.585a17.141 17.141 0 0 1-10.05-9.291l-17.45-39.856c-2.889-7.691-.854-16.158 5.155-21.643l4.949-4.518a1.5 1.5 0 0 1 2.022 2.216l-4.949 4.518c-5.098 4.654-6.824 11.836-4.399 18.299l17.42 39.781a14.133 14.133 0 0 0 8.286 7.66l21.583 7.495c.984-.055 1.688-.467 2.044-1.198.449-.922.276-2.187-.421-3.074a1.501 1.501 0 0 1 2.36-1.852c1.401 1.785 1.705 4.292.759 6.238-.894 1.839-2.708 2.893-4.976 2.893z" fill="#fff"/><path d="M168.181 1331.434c-32.817 0-46.799-17.004-48.937-31.915-9.931-4.927-17.514-9.901-29.434-28.708-11.27-17.781-12.572-32.427-12.72-35.88-3.381-2.668-20.403-16.378-27.289-27.241-6.64-10.475-5.723-25.756-5.297-30.117-4.311-1.818-19.909-9.649-34.49-32.653-11.474-18.103-11.036-29.919-8.648-36.644 2.181-6.14 7.004-10.735 13.583-12.94 11.05-3.703 23.822-6.036 34.167-6.239 14.022-.274 24.166 3.193 29.308 10.034 5.866 7.804 55.381 119.185 77.053 193.652 4.472 15.367 24.367 13.998 37.532 13.092 7.811-.538 12.526-.862 13.561 2.04 1.779 4.989 1.407 9.326-1.107 12.892-6.52 9.246-26.157 10.627-37.282 10.627zM50.64 1092.082c-.496 0-.984.005-1.465.015-10.057.198-22.496 2.473-33.273 6.084-5.768 1.933-9.817 5.771-11.709 11.1-2.165 6.097-2.474 16.951 8.354 34.034 8.439 13.315 17.252 21.269 23.158 25.597 6.396 4.687 10.857 6.25 10.902 6.265a1.503 1.503 0 0 1 1.001 1.619c-.024.18-2.334 18.152 4.725 29.289 7.218 11.387 26.957 26.763 27.156 26.917.367.284.581.724.581 1.188 0 .156.128 15.856 12.272 35.016 11.816 18.642 18.818 23.006 28.946 27.978a1.5 1.5 0 0 1 .829 1.175c1.596 13.874 14.618 30.076 46.062 30.076 8.489 0 28.876-.912 34.83-9.357 1.936-2.746 2.183-6.048.756-10.092-.929-.78-6.26-.413-10.552-.117-14.124.973-35.471 2.442-40.619-15.246-21.595-74.203-70.761-184.96-76.57-192.688-5.428-7.226-16.509-8.853-25.384-8.853zm153.156 216.929h.01zm-.052-.089.001.002-.001-.002zm180.078-432.427a1.5 1.5 0 0 1-.777-2.784l24.597-14.844a1.5 1.5 0 0 1 1.55 2.568l-24.597 14.844a1.492 1.492 0 0 1-.773.216z" fill="#25242e"/><path d="m862.666 1107.202 29.16 109.984c27.515 74.494 72.885 60.536 121.177 32.095l2.202-116.784z" fill="#fac0c3"/><path d="M1119.548 1312.704c3.944 19.721-19.931 17.23-30.516 17.23s-25.119-1.246-40.36-8.615c-11.123 4.463-21.5 8.615-43.507 8.615-23.456 0-36.951-8.615-36.951-8.615s-23.875 8.615-37.781 8.615c-13.907 0-28.232-12.04-28.232-12.04s-14.949 12.04-46.085 12.04-41.311-14.531-37.781-28.855c4.666-18.938 17.645-48.991 35.85-50.445 14.34-1.144 261.422 42.366 265.363 62.07z" fill="#fff"/><path d="m1029.574 1242.201 86.301 52.901c5.98 3.666 7.612 11.618 3.56 17.35s-208.388-30.592-218.47-32.872c-42.393-9.586-34.284-28.568-46.909-28.975 9.209-14.429 33.107-48.136 33.107-48.136l-13.924-15.298c-5.688-7.198.245-18.149 9.302-16.627 2.7.453 5.259 1.909 7.283 4.984 2.835 4.306 9.131 19.284 11.735 27.01 6.652 19.735 10.089 46.264 35.826 53.329 11.855 3.254 38.616-6.996 54.81-5.347l-1.209-9.403c-1.14-8.867 5.397-16.886 14.323-17.57l10.939-.838c6.069-.465 11.425 3.918 12.161 9.952z" fill="#25242e"/><path d="M1094.939 1291.578c-.37 0-.743-.038-1.115-.116l-86.398-18.042c-7.964-1.663-14.025-7.915-15.441-15.926l-1.167-6.598a1.5 1.5 0 1 1 2.954-.522l1.167 6.598a16.71 16.71 0 0 0 13.101 13.512l86.398 18.042c.897.188 1.781-.124 2.362-.834s.712-1.637.352-2.48a1.5 1.5 0 1 1 2.758-1.18 5.397 5.397 0 0 1-.788 5.561 5.404 5.404 0 0 1-4.183 1.985z" fill="#fff"/><path d="M1096.672 1331.535c-1.546 0-3.026-.029-4.392-.056-1.175-.023-2.269-.045-3.248-.045-15.148 0-28.376-2.774-40.413-8.478-10.957 4.394-21.534 8.478-43.454 8.478-21.05 0-34.118-6.741-37.115-8.465-4.063 1.427-24.757 8.465-37.618 8.465-12.403 0-24.818-8.955-28.274-11.65-3.844 2.668-18.808 11.65-46.043 11.65-21.433 0-31.179-6.696-35.58-12.314-4.019-5.129-5.318-11.663-3.658-18.4 2.788-11.315 7.656-23.352 13.022-32.198 7.279-12 15.635-18.702 24.166-19.383 7.671-.615 73.732 10.207 137.004 23.243 35.804 7.377 66.158 14.537 87.782 20.708 36.412 10.39 41.505 16.003 42.168 19.32 1.07 5.349.278 9.657-2.354 12.805-4.662 5.573-14.162 6.32-21.993 6.32zm-48-11.716c.224 0 .447.05.653.15 11.781 5.696 24.77 8.465 39.707 8.465.997 0 2.11.022 3.307.045 7.711.151 19.366.381 24.024-5.189 2.049-2.449 2.609-5.816 1.714-10.292-.557-2.786-11.406-13.736-127.614-37.678-65.771-13.551-129.448-23.733-136.16-23.19-9.512.759-17.126 10.179-21.839 17.948-5.217 8.601-9.955 20.324-12.674 31.36-1.455 5.906-.381 11.381 3.106 15.832 3.991 5.093 12.993 11.164 33.219 11.164 30.257 0 44.999-11.591 45.144-11.708a1.501 1.501 0 0 1 1.906.02c.139.117 14.082 11.689 27.268 11.689 13.481 0 37.036-8.441 37.272-8.526a1.502 1.502 0 0 1 1.315.146c.132.084 13.461 8.38 36.146 8.38 21.748 0 32.046-4.132 42.948-8.507.179-.073.369-.109.558-.109z" fill="#25242e"/><path d="M1015.205 1132.497s4.12-193.44 4.83-260.822-20.279-98.209-61.258-149.528c-31.833-39.866-202.573-223.489-253.461-270.959-50.137 1.037-151.886 1.463-171.045 36.627-23.317 42.793-4.838 138.727 83.233 155.021 35.758 39.095 209.911 214.145 209.911 214.145l-7.488 282.229z" fill="#56b1f0"/><path d="M977.039 1135.238h-.029a1.5 1.5 0 0 1-1.471-1.528c.036-1.891 3.597-189.672 4.666-238.299 1.261-57.419-25.012-117.443-78.091-178.406-13.117-15.065-72.164-78.089-129.267-139.037-48.583-51.855-94.471-100.833-112.178-120.356a1.5 1.5 0 0 1 2.223-2.016c17.69 19.505 63.571 68.475 112.145 120.32 57.121 60.968 116.187 124.012 129.34 139.118 53.584 61.543 80.106 122.253 78.828 180.442-1.068 48.622-4.63 236.399-4.666 238.29a1.5 1.5 0 0 1-1.5 1.472z" fill="#25242e"/><path d="M827.416 858.481a1.498 1.498 0 0 1-1.499-1.533l.631-28.722a1.5 1.5 0 1 1 2.999.066l-.583 26.556 14.333-5.038a1.5 1.5 0 0 1 .996 2.831l-16.377 5.756a1.553 1.553 0 0 1-.5.084zM661.78 690.586c-.391 0-.781-.152-1.075-.454-21.351-21.93-36.139-37.373-43.97-45.914-36.627-6.924-65.414-28.847-81.097-61.777-15.004-31.503-16.108-70.71-2.686-95.344a1.5 1.5 0 0 1 2.635 1.436c-12.992 23.843-11.857 61.93 2.759 92.619 15.329 32.187 43.538 53.569 79.429 60.209.321.059.614.222.834.463 7.717 8.438 22.604 23.987 44.244 46.216a1.5 1.5 0 0 1-1.073 2.546z" fill="#25242e"/><path d="M312.513 260.408c-39.395 23.066-33.913 97.22 17.663 115.343-11.84 45.472 12.677 86.911 50.038 92.292-6.117 44.06 38.249 89.423 68.373 78.978l256.729-95.834c18.695-5.552-4.345-80.02-59.597-82.574 15.422-41.124-14.195-79.298-56.97-89.386 17.243-31.636-3.002-82.784-47.016-97.466-8.242.367-19.743.83-34.848 3.551-50.912 9.171-148.619 46.747-181.249 66.832-6.125 3.773-8.04 4.813-13.123 8.264z" fill="#f05467"/><path d="M484.827 430.367a1.5 1.5 0 0 1-.526-2.905l160.892-60.252a1.5 1.5 0 0 1 1.052 2.81l-160.892 60.252a1.515 1.515 0 0 1-.526.095zm-104.613 39.177a1.501 1.501 0 0 1-.526-2.905l29.798-11.159a1.5 1.5 0 1 1 1.052 2.81l-29.798 11.159a1.515 1.515 0 0 1-.526.095zm122.45-156.68a1.5 1.5 0 0 1-.524-2.906l86.085-32.135a1.5 1.5 0 1 1 1.049 2.811l-86.085 32.135a1.51 1.51 0 0 1-.525.095zm-172.488 64.388a1.5 1.5 0 0 1-.525-2.906l146.196-54.573a1.5 1.5 0 1 1 1.049 2.811L330.7 377.157a1.5 1.5 0 0 1-.524.095zm186.248 287.933c-.114 0-.23-.013-.346-.041-21.488-5.082-40.11-10.117-50.364-20.3a1.5 1.5 0 1 1 2.115-2.128c9.485 9.42 27.107 14.317 47.559 19.182l12.139-41.091c-15.411-19.454-25.404-44.528-27.001-67.633l-56.335 21.029a1.5 1.5 0 0 1-1.049-2.811l58.238-21.739a1.5 1.5 0 0 1 2.022 1.334c1.113 23.295 11.189 48.923 26.954 68.557a1.5 1.5 0 0 1 .269 1.364l-12.762 43.203a1.505 1.505 0 0 1-1.439 1.074zm128.549-41.437-.099-.003c-18.682-1.227-45.319-5.845-66.127-20.876a1.56 1.56 0 0 1-.251-.229c-16.779-19.21-26.629-42.614-29.275-69.561a1.501 1.501 0 0 1 .968-1.552l92.293-34.451a1.498 1.498 0 0 1 1.993 1.101c3.881 18.784 22.533 59.104 27.464 68.838.209.412.216.897.02 1.316l-25.629 54.555a1.5 1.5 0 0 1-1.357.862zm-64.33-23.211c19.837 14.267 45.222 18.847 63.408 20.145l24.882-52.966c-5.262-10.53-22.479-47.95-27.018-67.226l-89.591 33.443c2.741 25.769 12.266 48.171 28.319 66.604z" fill="#25242e"/><path d="M884.507 93.041c-19.51 29.799-52.755 79.891-52.755 79.891l107.825 57.676s40.542-84.065 50.254-100.925c9.711-16.861-90.721-58.946-105.324-36.642z" fill="#fac0c3"/><path d="M912.817 112.847s27.142-40.274 36.416-60.814-10.379-36.314-31.928-7.841c-5.837 7.712-22.706 33.225-38.84 57.935z" fill="#fac0c3"/><path d="M932.502 119.488s34.27-54.041 40.88-66.56c16.362-30.987-12.92-46.045-32.97-14.295-8.96 14.188-42.705 68.166-42.705 68.166-8.332 12.976 27.908 22.207 34.795 12.689z" fill="#fac0c3"/><path d="M902.49 100.647a1.5 1.5 0 0 1-1.271-2.295c9.084-14.526 30.965-49.501 37.924-60.519 2.773-4.391 5.84-8.097 9.116-11.015a1.5 1.5 0 0 1 1.995 2.24c-3.066 2.731-5.951 6.223-8.575 10.377-6.955 11.014-28.833 45.984-37.916 60.508a1.497 1.497 0 0 1-1.273.704z" fill="#25242e"/><path d="M921.324 117.993s38.406-62.133 49.53-75.395c23.87-28.458 39.51-2.8 30.294 16.632-8.707 18.36-42.087 69.975-42.087 69.975-12.992 18.339-52.226 14.679-37.737-11.212z" fill="#fac0c3"/><path d="M925.487 112.794a1.5 1.5 0 0 1-1.271-2.295c10.718-17.178 36.606-58.277 45.488-68.866 3.489-4.16 6.986-7.392 10.393-9.606a1.5 1.5 0 0 1 1.635 2.515c-3.157 2.052-6.431 5.086-9.729 9.019-8.76 10.443-34.557 51.401-45.242 68.526a1.496 1.496 0 0 1-1.274.707z" fill="#25242e"/><path d="M974.631 160.973s45.134-75.261 48.639-86.872c6.798-22.523-13.927-32.928-31.213-14.963-9.638 10.017-45.33 62.871-45.33 62.871-15.715 26.512 11.653 57.07 27.904 38.964z" fill="#fac0c3"/><path d="M946.726 123.51a1.5 1.5 0 0 1-1.242-2.34c1.46-2.162 35.875-53.076 45.492-63.071 4.973-5.168 10.529-8.391 16.067-9.322a1.5 1.5 0 0 1 .497 2.959c-4.899.823-9.879 3.743-14.402 8.443-9.438 9.81-44.812 62.143-45.168 62.67-.29.43-.762.661-1.244.661z" fill="#25242e"/><path d="M956.709 201.257s14.461-8.087 20.236-12.539c28.401-21.894 24.903-42.535 15.534-69.427-10.602-30.432-41.141-24.255-35.981 4.3.766 4.24 2.511 10.05 5.261 20.65-36.271-9.858-54.855 25.378-54.855 25.378z" fill="#fac0c3"/><path d="M927.542 149.336a1.5 1.5 0 0 1-.763-2.792c10.137-5.978 21.183-7.476 32.866-4.464-.647-2.463-1.232-4.641-1.753-6.585-1.414-5.269-2.348-8.751-2.869-11.637-1.941-10.738.958-22.85 11.81-25.702 8.769-2.304 20.978 3.172 27.063 20.642 1.33 3.818 2.35 6.957 3.209 9.876a1.5 1.5 0 0 1-2.878.848c-.845-2.872-1.851-5.965-3.165-9.737-5.459-15.669-15.988-20.692-23.468-18.727-8.998 2.365-11.315 12.888-9.62 22.267.499 2.763 1.42 6.196 2.814 11.393.696 2.594 1.503 5.603 2.423 9.147a1.5 1.5 0 0 1-1.898 1.809c-11.79-3.672-22.896-2.51-33.011 3.455-.238.14-.501.207-.76.207z" fill="#25242e"/><path d="M852.83 141.012 833.754 169.9l-79.617 120.57s-57.821-38.64-96.491-64.712c-51.351-34.622-81.765-44.707-115.749-43.975-36.008.002-40.791 111.028-1.488 142.855 0 0 98.926 71.488 132.302 90.591 63.485 36.337 129.289 44.19 182.047-23.38 23.963-30.69 61.037-85.41 76.438-108.375a44.216 44.216 0 0 0 7.471-23.274l.909-29.592 17.133-29.351z" fill="#fff"/><path d="M760.826 444.212c-22.802 0-47.688-6.643-74.202-19.833a1.5 1.5 0 1 1 1.336-2.686c31.585 15.711 60.747 21.986 86.68 18.649 29.767-3.831 56.324-20.457 78.936-49.416 24.017-30.759 61.412-85.975 76.375-108.287a42.666 42.666 0 0 0 7.217-22.485l.909-29.592c.008-.25.078-.494.204-.71l16.375-28.052-101.354-58.78-97.913 148.277a1.5 1.5 0 0 1-2.085.421c-.578-.386-58.266-38.94-96.496-64.716-55.286-37.275-84.935-44.362-114.878-43.719-2.189 0-4.285.444-6.26 1.32a1.499 1.499 0 1 1-1.216-2.743 18.264 18.264 0 0 1 7.444-1.577c36.001-.776 67.612 11.212 116.587 44.231 35.087 23.656 86.569 58.08 95.232 63.871l97.861-148.199a1.5 1.5 0 0 1 2.004-.471l103.88 60.245a1.5 1.5 0 0 1 .543 2.054l-16.941 29.022-.897 29.211a45.675 45.675 0 0 1-7.725 24.064c-14.981 22.339-52.424 77.626-76.501 108.463-23.115 29.604-50.339 46.61-80.917 50.545-4.635.595-9.371.893-14.198.893z" fill="#25242e"/><path d="M939.575 232.108c-.253 0-.51-.064-.745-.199l-105.822-60.708a1.501 1.501 0 0 1 1.493-2.603l105.822 60.708a1.501 1.501 0 0 1-.748 2.802zm-173.442 97.458a1.502 1.502 0 0 1-1.429-1.044l-11.996-37.595a1.502 1.502 0 0 1 2.267-1.7l21.299 14.338a1.5 1.5 0 0 1-1.676 2.489l-17.721-11.93 10.685 33.487a1.501 1.501 0 0 1-1.429 1.955z" fill="#25242e"/><path d="M346.848 240.865c38.404-17.798 73.563-31.118 106.111-41.347l-57.75 145.528c-33.502-31.89-51.76-66.268-48.361-104.181z" fill="#fff"/><path d="M358.139 235.636v32.017a24.555 24.555 0 0 0 11.188 20.597l14.692 9.534s33.043-66.27 50.532-100.446c23.544-46.01 54.071-20.39 68.114-11.22 0 0-11.444 2.377-19.834 4.741-12.419 15.508-8.318 56.173-9.196 75.446a73.393 73.393 0 0 1-6.569 27.185l-32.814 71.747c-9.012 19.704-34.422 25.232-50.805 11.051l-52.046-45.05c-11.663-10.095-16.572-25.789-13.215-40.844 3.728-16.722 8.974-35.952 13.064-49.674 8.203-27.52 25.648-40.758 60.559-19.303-15.703 6.166-33.67 14.219-33.67 14.219z" fill="#fff"/><path d="M376.158 315.01a1.499 1.499 0 0 1-1.34-2.171l7.859-15.725a1.499 1.499 0 1 1 2.683 1.341l-7.859 15.725a1.5 1.5 0 0 1-1.343.83z" fill="#25242e"/><path d="M404.595 385.729c-8.062 0-15.854-2.875-22.13-8.307l-52.046-45.05c-11.959-10.352-17.208-26.562-13.698-42.305 3.246-14.559 8.14-33.167 13.091-49.777 4.668-15.661 12.017-25.505 21.843-29.26 10.686-4.084 24.459-1.019 40.938 9.108a1.502 1.502 0 0 1-.237 2.674c-13.521 5.31-28.908 12.104-32.718 13.797v31.043a22.973 22.973 0 0 0 10.504 19.339l13.283 8.62c5.022-10.065 33.956-68.015 49.789-98.957 7.644-14.939 16.851-23.876 27.364-26.564 15.368-3.929 29.961 5.994 39.617 12.561 1.177.8 2.276 1.548 3.29 2.21a1.501 1.501 0 0 1-.515 2.725c-.112.023-11.064 2.305-19.26 4.584-8.975 11.783-8.698 38.627-8.494 58.283.061 5.922.119 11.515-.082 15.919a74.54 74.54 0 0 1-6.704 27.74l-32.814 71.747c-4.494 9.825-13.126 16.778-23.684 19.074a34.4 34.4 0 0 1-7.337.796zm-42.991-173.455c-3.196 0-6.158.519-8.879 1.559-8.909 3.405-15.651 12.595-20.039 27.315-4.932 16.546-9.806 35.078-13.037 49.572-3.269 14.664 1.61 29.755 12.733 39.383l52.046 45.05c7.448 6.447 17.24 8.943 26.866 6.85 9.625-2.094 17.496-8.432 21.593-17.391l32.814-71.747a71.534 71.534 0 0 0 6.435-26.629c.197-4.321.139-9.873.079-15.752-.222-21.451-.498-48.148 9.444-60.563.196-.244.463-.421.764-.506 5.516-1.555 12.403-3.127 16.47-4.02l-.385-.262c-9.21-6.264-23.129-15.73-37.187-12.135-9.643 2.465-18.201 10.884-25.436 25.024-17.285 33.778-50.194 99.77-50.525 100.432a1.503 1.503 0 0 1-2.159.589l-14.692-9.534a25.962 25.962 0 0 1-11.871-21.855v-32.017a1.5 1.5 0 0 1 .886-1.369c.169-.076 16.074-7.196 30.899-13.124-10.204-5.905-19.18-8.87-26.819-8.87z" fill="#25242e"/><path d="M391.808 222.917a1.5 1.5 0 0 1-.527-2.905l37.668-14.123a1.5 1.5 0 1 1 1.053 2.809l-37.668 14.123a1.494 1.494 0 0 1-.526.096z" fill="#25242e"/></svg></g><g transform="translate(72.0 431.0) rotate(0.0 532.0 560.0) scale(1.000470145745181 1.0007434093898326)"><svg width="1063.5" height="1119.168" viewBox="0 0 1063.5 1119.168"><path d="m727.219 253.64 108.753 46.496-72.383 50.015z" fill="#f0e760"/><path d="M236.988 538.038c-48.738-7.125-81.728-9.797-81.728-9.797-63.778-23.529-34.246-75.031-5.572-128.332l106.928 12.573c30.29 42.613 8.688 107.508-19.628 125.556z" fill="#eda189"/><path d="M239.004 410.412c-18.176-16.953-45.737-40.763-66.711-51.084s-35.037 12.666-16.211 32.11 37.44 35.538 39.966 37.695c14.192 12.12 63.943.853 42.956-18.721z" fill="#eda189"/><path d="M209.874 471.81c-.247 0-.498-.061-.729-.19-6.994-3.899-12.28-11.225-14.884-20.628-2.215-7.999-2.21-16.554-.074-21.483-4.123-3.565-21.552-18.822-39.182-37.029a1.5 1.5 0 0 1 2.155-2.087c19.652 20.297 39.046 36.901 39.862 37.598a1.5 1.5 0 0 1 .326 1.888c-1.905 3.312-2.621 11.557-.196 20.311 2.388 8.623 7.166 15.303 13.454 18.808a1.5 1.5 0 0 1-.732 2.812z" fill="#25242e"/><path d="M155.261 434.052c-42.943-4.284-47.434-18.868-46.655-28.475 1.607-19.821 31.669-21.079 44.619-19.162 20.525 3.038 26.19 15.213 24.779 22.217-2.161 10.726-12.58 19.54-40.027 16.476z" fill="#eda189"/><path d="M147.884 427.185c-3.622 0-7.078-.252-10.073-.586a1.5 1.5 0 0 1 .333-2.981c22.591 2.522 35.868-2.762 38.39-15.282.596-2.958-.354-6.582-2.542-9.695-2.732-3.888-8.59-8.907-20.987-10.742-5.125-.759-13.477-1.051-21.546.403a1.5 1.5 0 1 1-.532-2.952c8.426-1.519 17.157-1.212 22.518-.419 13.45 1.991 19.932 7.617 23.002 11.985 2.691 3.829 3.794 8.208 3.028 12.012-3.003 14.907-18.383 18.257-31.591 18.257z" fill="#25242e"/><path d="M152.953 465.864c-42.943-4.284-47.434-18.868-46.655-28.475 1.607-19.821 31.669-21.079 44.619-19.162 20.525 3.038 26.19 15.213 24.779 22.217-2.161 10.726-12.58 19.54-40.027 16.476z" fill="#eda189"/><path d="M145.576 458.998c-3.622 0-7.078-.252-10.073-.586a1.5 1.5 0 0 1 .333-2.981c22.59 2.522 35.868-2.762 38.39-15.282.596-2.958-.354-6.582-2.542-9.695-2.732-3.888-8.59-8.907-20.987-10.742-10.15-1.503-28.535-.832-37.576 7.175a1.5 1.5 0 1 1-1.988-2.245c4.506-3.991 11.49-6.724 20.198-7.906 6.453-.875 13.857-.872 19.806.008 13.45 1.991 19.932 7.617 23.002 11.985 2.691 3.829 3.794 8.208 3.028 12.012-3.002 14.907-18.383 18.256-31.591 18.257z" fill="#25242e"/><path d="M154.26 498.134c-42.943-4.284-47.434-18.868-46.655-28.475 1.607-19.821 31.669-21.079 44.619-19.162 20.525 3.038 26.19 15.213 24.779 22.217-2.161 10.726-12.58 19.54-40.027 16.476z" fill="#eda189"/><path d="M146.883 491.267c-3.622 0-7.078-.252-10.073-.586a1.5 1.5 0 0 1 .333-2.981c22.591 2.522 35.868-2.762 38.39-15.282.596-2.958-.354-6.582-2.542-9.695-2.732-3.888-8.59-8.907-20.987-10.742-11.696-1.732-32.979-.483-40.3 10.238a1.5 1.5 0 0 1-2.478-1.692c9.113-13.345 34.286-12.836 43.217-11.514 13.45 1.991 19.932 7.617 23.002 11.985 2.691 3.829 3.794 8.208 3.028 12.012-3.002 14.907-18.382 18.256-31.59 18.257z" fill="#25242e"/><path d="M155.26 528.242c-42.943-4.284-47.432-18.792-46.653-28.4 1.607-19.821 31.669-21.079 44.619-19.162 20.525 3.038 26.19 15.213 24.779 22.217-2.161 10.726-12.58 19.54-40.027 16.476z" fill="#eda189"/><path d="M147.884 521.451c-3.622 0-7.078-.252-10.073-.586a1.5 1.5 0 0 1 .333-2.981c22.591 2.522 35.868-2.762 38.39-15.282.596-2.958-.354-6.582-2.542-9.695-2.732-3.888-8.59-8.907-20.987-10.742-11.197-1.658-31.875-.566-39.7 9.419a1.5 1.5 0 1 1-2.361-1.851c8.669-11.063 30.166-12.362 42.501-10.537 13.45 1.991 19.932 7.617 23.002 11.985 2.691 3.829 3.794 8.208 3.028 12.012-3.003 14.908-18.383 18.257-31.591 18.258z" fill="#25242e"/><path d="M566.881 305.755c-12.744 46.378-20.212 74.767-44.871 151.513-14.298 44.5-38.568 110.764-124.466 101.108-42.374-4.763-90.155 62.724-123.389-15.181l19.463-126.361 90.519 10.644S395.951 395 407.6 362.76c21.725-60.125 37.963-99.829 83.046-137.819z" fill="#f0e760"/><path d="M539.868 406.241a1.5 1.5 0 0 1-1.335-.814c-8.085-15.723-28.152-30.473-55.055-40.467-25.64-9.525-52.74-12.991-72.494-9.272a1.5 1.5 0 0 1-.555-2.949c20.266-3.816 47.965-.298 74.094 9.408 27.597 10.252 48.256 25.527 56.679 41.908a1.5 1.5 0 0 1-1.334 2.186z" fill="#25242e"/><path d="M786.135 322.906c94.801 39.246 149.88 127.7 73.425 234.366-63.768 88.964-107.877 149.161-138.084 188.613 75.502 24.254 118.535 67.938 199.777 126.341-2.825 42.167-22.752 104.975-75.689 113.982-49.481-20.587-109.972-46.113-161.332-68.838-130.646-57.804-210.139-125.617-142.647-236.681 24.785-40.786 167.963-233.535 167.963-233.535s-3.249-157.299 76.587-124.248z" fill="#eda189"/><path d="M681.039 335.581c76.119 48.17 131.266 134.274 46.87 235.588-70.39 84.501-185.596 198.945-223.906 240.294-41.001 44.254-91.4 104.501-214.798 185.441-100.108 3.02-105.168-84.845-105.168-84.845L579.21 447.154c.001 0 25.709-159.743 101.829-111.573z" fill="#eda189"/><path d="M789.457 324.519c-38.567-15.748-57.61 10.107-67.397 43.184-12.313-12.02-26.27-22.786-41.022-32.121-76.119-48.171-101.828 111.573-101.828 111.573L287.448 790.4c81.115 12.842 150.052 148.418 212.258 167.734l266.389-349.182-54.158 149.39s84.286-110.845 147.623-201.071c75.758-107.918 26.009-193.506-70.103-232.752z" fill="#fff"/><path d="M499.706 959.635c-.148 0-.298-.022-.445-.068-28.052-8.711-57.234-40.498-88.129-74.152-39.033-42.518-79.395-86.484-123.919-93.533a1.499 1.499 0 0 1-.908-2.453l242.121-284.845a1.5 1.5 0 1 1 2.285 1.943l-240.42 282.846c44.507 8.453 84.424 51.936 123.052 94.013 30.242 32.942 58.826 64.08 85.813 72.997l265.748-348.341a1.5 1.5 0 0 1 2.602 1.421L716.731 749.52c16.297-21.578 63.189-83.923 107.667-145.493a1.5 1.5 0 0 1 2.431 1.756c-54.731 75.763-113.115 152.696-113.698 153.465a1.5 1.5 0 0 1-2.605-1.419l50.82-140.181-260.447 341.396a1.5 1.5 0 0 1-1.193.591z" fill="#25242e"/><path d="M825.614 604.906c-19.981-89.445-164.538-111.904-295.192-100.355l25.469-29.963c150.53-29.897 297.214 6.317 292.429 98.605z" fill="#f0e760"/><path d="m719.02 248.689 53.699 69.653c103.674 30.432 176.44 126.349 75.601 254.852-19.981-89.445-161.776-110.155-292.429-98.605-18.051-15.644-11.234-34.151-1.754-48.245-19.787-20.77-45.957-48.846-50.134-56.329-6.849-12.272-18.662-71.149-17.025-141.922 30.181-26.637 94.522-58.68 138.479-74.01z" fill="#f0e760"/><path d="M848.319 574.694a1.5 1.5 0 0 1-1.462-1.173c-19.89-89.039-163.277-108.714-290.833-97.438a1.499 1.499 0 1 1-.264-2.988c71.465-6.318 138.319-2.242 188.246 11.477 28.63 7.867 52.012 18.862 69.497 32.679 19.225 15.193 31.432 33.905 36.282 55.616a1.5 1.5 0 0 1-1.466 1.827zm-291.33-473.452c27.018 14.702 49.784 14.62 67.787-2.024 0 0-16.468-4.231-13.404-17.146s30.638-32.475 8.17-60.106c-21.6-26.563-50.962-11.377-62.936.383-11.106 3.447-36.21-36.701-91.674-16.77-47.73 17.152-54.751 54.765-51.127 76.492zm-138.37-2.024s5.604 11.145 5.604 22.578c0 11.489-11.1 16.13-18.59 21.65-6.328 4.663-9.611 14.691-4.774 24.148 3.745 7.323 13.88 11.513 24.639 7.438 13.862-5.251 24.223-1.539 33.8 6.493-3.925-26.015-14.505-22.904-18.701-29.653-4.123-6.632 2.881-9.323-3.608-20.691-3.372-5.908-8.07-21.385-8.07-21.385" fill="#25242e"/><path d="M428.967 119.144c-7.964-12.427-13.218-25.034-15.162-37.072-2.644-24.467 5.91-47.236 34.63-62.741 44.205-23.866 80.268-4.335 101.542 34.482 2.678-18.668 24.716-16.852 32.31-2.772 5.619 10.417.31 27.186-20.02 30.264 9.252 46.674-20.807 74.695-55.212 87.957-42.123 16.235-85.57-8.444-78.088-50.118z" fill="#eda189"/><path d="M494.239 109.191c2.769-13.928-15.112-12.365-14.552-.891-14.07-9.427-21.6 8.388-6.322 10.926-2.171 3.346.547 13.941 11.203 11.626 14.306-3.107 14.342-17.105 9.671-21.661z" fill="#f05467"/><path d="M471.185 120.571a1.5 1.5 0 0 1-.145-2.993c12.968-1.276 27.138-10.685 31.587-20.974a1.5 1.5 0 0 1 2.753 1.191c-4.835 11.184-20.108 21.398-34.046 22.769a1.5 1.5 0 0 1-.149.007zm102.73-58.727a1.5 1.5 0 0 1-.356-.043L558.5 58.13a1.5 1.5 0 0 1 .71-2.914l15.058 3.671a1.5 1.5 0 0 1-.353 2.957z" fill="#25242e"/><path d="M564.777 66.777a1.5 1.5 0 0 1-1.454-1.873l3.804-14.812a1.5 1.5 0 0 1 2.906.746l-3.804 14.812a1.5 1.5 0 0 1-1.452 1.127zm-131.394 29.71a1.5 1.5 0 0 1-1.328-2.195c3.447-6.593 7.857-8.585 10.95-9.095 4.79-.791 10.168 1.268 14.756 5.646a1.5 1.5 0 1 1-2.071 2.17c-3.9-3.722-8.344-5.491-12.197-4.856-3.519.58-6.472 3.112-8.78 7.525a1.5 1.5 0 0 1-1.33.805z" fill="#25242e"/><path d="M443.989 98.899c3.678 6.499 9.016 10.435 11.922 8.79s2.281-8.247-1.397-14.746c-1.47-2.598-3.206-4.787-4.946-6.373-3.803-.587-8.718.016-8.807.836-.516 4.772 2.027 9.37 3.228 11.493zm37.373-28.404a1.5 1.5 0 0 1-1.328-2.195c3.447-6.593 7.857-8.585 10.95-9.095 4.787-.79 10.168 1.268 14.756 5.646a1.5 1.5 0 1 1-2.071 2.17c-3.9-3.722-8.346-5.491-12.197-4.857-3.519.581-6.473 3.112-8.78 7.525-.267.513-.79.806-1.33.806z" fill="#25242e"/><path d="M491.968 72.907c3.678 6.499 9.016 10.435 11.922 8.79s2.281-8.247-1.397-14.746c-1.47-2.598-3.206-4.787-4.946-6.373-3.803-.587-8.718.016-8.807.836-.517 4.772 2.027 9.371 3.228 11.493z" fill="#25242e"/><path d="M549.976 53.812c-30.518-.825-69.191-19.68-78.789-43.224-4.198 27.845-23.781 55.077-57.382 71.483-1.262-5.723-8.092-60.106 57.382-75.68 62.451-14.855 78.789 47.421 78.789 47.421s7.254 12.919 10.384 18.958c6.025 11.621 2.173 15.424 6.025 22.216 3.92 6.913 13.009 4.231 15.881 30.383-9.245-8.412-19.448-12.539-33.511-7.851-10.915 3.638-20.872-.957-24.319-8.426-4.452-9.645-.766-19.532 5.745-23.936 7.707-5.213 12.447-8.809 6.167-19.88-4.592-8.096-11.657-15.68-11.657-15.68" fill="#25242e"/><path d="m549.977 55.312-.091-.003c-9.366-.557-19.551-2.486-30.271-5.732a1.5 1.5 0 0 1 .869-2.871c10.495 3.178 20.447 5.065 29.579 5.609a1.5 1.5 0 0 1-.086 2.997zm29.648 58.186a1.501 1.501 0 0 1-1.426-1.035c-2.349-7.191-5.53-9.635-8.335-11.791-1.803-1.386-3.507-2.695-4.784-4.947-1.884-3.322-2.09-6.028-2.308-8.892-.257-3.379-.548-7.209-3.744-13.374a1.5 1.5 0 0 1 2.663-1.381c3.477 6.708 3.807 11.043 4.072 14.527.208 2.738.373 4.901 1.926 7.639.978 1.724 2.379 2.801 4.003 4.048 2.995 2.301 6.722 5.165 9.359 13.238a1.501 1.501 0 0 1-1.426 1.968z" fill="#fff"/><path d="m801.652 445.847-21.936 9.86-52.497-117.748 15.95-8.046c57.228 12.875 65.808 79.022 58.483 115.934z" fill="#eda189"/><path d="M715.87 454.235c35.714 16.395 63.846 1.473 63.846 1.473 26.944-12.886-22.578-119.971-52.497-117.748 0-.001-47.063 99.88-11.349 116.275z" fill="#eda189"/><path d="M727.219 337.959c-56.41-30.699-96.538-25.642-119.405-10.745-19.791 12.893-12.348 38.177 15.064 32.149 7.238-1.592 39.477-11.553 69.67 11.708 15.59 12.012 57.371-20.757 34.671-33.112z" fill="#eda189"/><path d="M708.362 354.492s-70.504 12.482-96.89 22.494c-36.826 13.973-32.787 44.733.521 40.819 44.406-5.217 102.074-22.16 102.074-22.16 21.711-7.6 17.429-39.66-5.705-41.153z" fill="#eda189"/><path d="M651.575 367.456a1.5 1.5 0 0 1-.332-2.963c27.488-6.262 56.567-11.427 56.858-11.478a1.5 1.5 0 0 1 .523 2.955c-.29.051-29.3 5.204-56.714 11.449a1.606 1.606 0 0 1-.335.037z" fill="#25242e"/><path d="M711.274 378.777s-77.726 21.3-94.11 27.532c-36.113 13.737-29.447 46.454 2.81 40.548 48.021-8.792 99.908-25.946 99.908-25.946 23.546-5.131 5.847-45.835-8.608-42.134z" fill="#eda189"/><path d="M597.006 421.846a1.5 1.5 0 0 1-1.211-2.384c4.37-6 11.575-11.033 20.836-14.556 16.264-6.187 91.07-26.707 94.247-27.577a1.5 1.5 0 0 1 .793 2.893c-.777.213-77.843 21.352-93.973 27.488-8.715 3.315-15.45 7.99-19.477 13.518a1.497 1.497 0 0 1-1.215.618z" fill="#25242e"/><path d="M710.882 411.116c-25.004 10.506-53.058 29.827-68.632 47.26-15.573 17.433 2.795 37.152 26.579 24.236 23.784-12.915 44.285-26.525 47.041-28.378 15.485-10.416 21.469-54.235-4.988-43.118z" fill="#eda189"/><path d="M657.015 445.782a1.5 1.5 0 0 1-.964-2.65c15.908-13.324 36.188-25.81 54.249-33.399a1.5 1.5 0 1 1 1.162 2.766c-17.8 7.479-37.794 19.791-53.485 32.933-.28.235-.622.35-.962.35z" fill="#25242e"/><path d="m1060.721 950.57-80.831 140.242a50.837 50.837 0 0 1-44.045 25.451h-56.963a9 9 0 0 1 0-18h58.522a27.889 27.889 0 0 0 24.163-13.962l82.583-143.282c2.724-4.726 8.842-6.22 13.438-3.281a9.563 9.563 0 0 1 3.133 12.832z" fill="#fff"/><path d="m979.287 910.731-58.034-38.506-45.835 79.803c-4.857-1.979-10.49-.097-13.14 4.516l-16.714 29.664 77.904 32.127.196.081-.001.005c-.027.11-7.763 31.449-13.25 49.484-23.552 4.7-38.871 9.806-34.531 30.359h61.234a28.355 28.355 0 0 0 14.963-4.281l.044-.028a28.547 28.547 0 0 0 1.552-1.04l.113-.08c.476-.346.941-.707 1.396-1.082.061-.05.123-.099.183-.15.422-.354.832-.722 1.233-1.101.083-.079.169-.155.251-.235.369-.357.726-.728 1.077-1.106.101-.109.205-.214.305-.324.324-.361.634-.735.941-1.114.11-.135.224-.265.332-.403.297-.381.578-.776.856-1.174.1-.142.206-.278.303-.422.357-.53.698-1.074 1.021-1.632l.025-.039 84.372-146.386c-21.603-14.349-44.455-23.743-66.796-26.936z" fill="#24968b"/><path d="M942.317 1046.135c-1.497 0-3.014-.192-4.521-.591l-18.879-4.998a1.5 1.5 0 1 1 .768-2.9l18.879 4.998a14.485 14.485 0 0 0 16.506-7.149l12.327-22.855a11.996 11.996 0 0 0 .866-9.461 12 12 0 0 0-6.232-7.171l-86.609-42.347a1.5 1.5 0 0 1 1.318-2.695l86.605 42.345a14.97 14.97 0 0 1 7.773 8.947 14.974 14.974 0 0 1-1.081 11.807l-12.327 22.855a17.47 17.47 0 0 1-15.393 9.215zm52.777-77.026c-10.752 0-19.5-8.748-19.5-19.5s8.748-19.5 19.5-19.5 19.5 8.748 19.5 19.5c0 10.753-8.748 19.5-19.5 19.5zm0-36c-9.098 0-16.5 7.402-16.5 16.5s7.402 16.5 16.5 16.5 16.5-7.402 16.5-16.5-7.402-16.5-16.5-16.5zm-57.979 166.655a1.5 1.5 0 0 1-1.487-1.318c-2.585-21.146-20.817-28.955-25.243-29.042-.828-.016-1.486-.701-1.47-1.529s.684-1.496 1.529-1.47c6.706.132 25.521 10.071 28.162 31.677a1.5 1.5 0 0 1-1.491 1.682z" fill="#25242e"/><path d="M935.845 1117.763h-56.963c-5.79 0-10.5-4.71-10.5-10.5s4.71-10.5 10.5-10.5a1.5 1.5 0 0 1 0 3c-4.135 0-7.5 3.365-7.5 7.5s3.365 7.5 7.5 7.5h56.963c17.585 0 33.964-9.465 42.745-24.7l80.831-140.242a8.052 8.052 0 0 0-2.642-10.82 7.996 7.996 0 0 0-6.257-1.04 7.992 7.992 0 0 0-5.073 3.807 1.501 1.501 0 0 1-2.6-1.498c1.524-2.644 3.996-4.499 6.961-5.223s6.013-.217 8.584 1.427a11.047 11.047 0 0 1 3.625 14.845l-80.831 140.242c-9.313 16.162-26.688 26.202-45.343 26.202z" fill="#25242e"/><path d="M11.203 1117.668h66.105l171.105-13.601c5.342-.423 9.329-5.097 8.906-10.439-.423-5.342-5.097-9.329-10.439-8.906l-170.145 13.54H11.203a9.703 9.703 0 0 0-9.703 9.703c0 5.358 4.344 9.703 9.703 9.703z" fill="#fff"/><path d="m289.205 996.904-75.152-51.396.191-.21c3.882-4.281 3.054-11.012-1.751-14.223l-28.455-19.016-96.186 113.158-23.845 28.053s-8.72 3.631-17.507 6.951c-25.278 9.548-35.879 17.042-35.876 38.042h66.684l172.675-13.717c.536-20.873-1.116-40.668-8.019-57.881 15.402-9.296 31.188-19.287 47.241-29.761z" fill="#24968b"/><path d="m77.118 1099.762-.099-.003a1.5 1.5 0 0 1-1.399-1.595c1.236-18.903-3.816-36.48-12.571-43.739a1.5 1.5 0 1 1 1.915-2.309c9.607 7.966 14.965 26.118 13.65 46.245a1.5 1.5 0 0 1-1.496 1.401zm40.758-53.689a15.585 15.585 0 0 1-9.517-3.213l-21.42-16.454a1.5 1.5 0 0 1 1.827-2.379l21.42 16.454c5.192 3.988 12.704 3.313 17.102-1.536l85.653-94.445a1.5 1.5 0 1 1 2.223 2.016l-85.653 94.445c-3.059 3.372-7.336 5.112-11.635 5.112zm113.07-14.607a1.5 1.5 0 0 1-.43-2.937l9.054-2.713-8.076-11.856a1.5 1.5 0 0 1 2.479-1.689l9.229 13.55a1.5 1.5 0 0 1-.809 2.281l-11.017 3.301a1.517 1.517 0 0 1-.43.063zm-17.999 41.304c-10.752 0-19.5-8.748-19.5-19.5s8.748-19.5 19.5-19.5 19.5 8.748 19.5 19.5-8.748 19.5-19.5 19.5zm0-36c-9.098 0-16.5 7.402-16.5 16.5s7.402 16.5 16.5 16.5 16.5-7.402 16.5-16.5-7.402-16.5-16.5-16.5z" fill="#25242e"/><path d="M77.307 1119.168H11.203c-6.177 0-11.203-5.025-11.203-11.203s5.025-11.203 11.203-11.203a1.5 1.5 0 0 1 0 3c-4.523 0-8.203 3.68-8.203 8.203s3.68 8.203 8.203 8.203h66.045l171.046-13.596c2.185-.173 4.171-1.186 5.593-2.853s2.11-3.788 1.937-5.972c-.358-4.509-4.321-7.888-8.825-7.529a1.5 1.5 0 1 1-.237-2.991c6.157-.484 11.565 4.124 12.053 10.282s-4.125 11.565-10.283 12.053l-171.104 13.601a1.654 1.654 0 0 1-.121.005z" fill="#25242e"/><path d="M607.117 160.973c11.34 24.333 5.55 68.858-45.532 88.992-40.788 16.076-66.064-6.255-64.577-29.868.621-9.707 10.769-16.409 16.64-11.677-4.148 16.013 10.405 38.354 42.958 25.523 38.939-15.347 38.425-50.871 31.965-65.156-3.241-7.034 14.759-16.034 18.546-7.814z" fill="#f0e760"/><path d="M535.392 256.867c-9.93 0-18.828-2.591-25.903-7.741-9.467-6.89-14.692-17.777-13.978-29.123.436-6.815 4.964-11.771 9.259-13.659 3.574-1.572 7.153-1.241 9.82.908a1.5 1.5 0 0 1 .511 1.544c-1.975 7.625.729 16.315 6.73 21.625 7.874 6.967 20.029 7.722 34.226 2.126 15.249-6.01 25.622-15.57 30.831-28.414 5.233-12.904 3.93-26.74.318-34.729-.938-2.037-.599-4.379.962-6.586 2.883-4.078 9.222-7.031 14.126-6.577 2.892.266 5.088 1.722 6.185 4.1 6.59 14.142 6.732 32.091.379 48.014-5.311 13.311-17.727 31.578-46.722 43.005-9.332 3.679-18.402 5.507-26.744 5.507zm-26.199-48.504c-1.277 0-2.436.385-3.216.728-3.463 1.523-7.117 5.547-7.472 11.103-.649 10.315 4.117 20.225 12.749 26.507 12.173 8.859 30.317 9.54 49.781 1.869 27.998-11.035 39.944-28.564 45.035-41.326 6.052-15.17 5.935-32.23-.313-45.637l-.003-.006c-.647-1.405-1.905-2.203-3.737-2.371-3.82-.353-9.149 2.135-11.402 5.322-.942 1.332-1.172 2.546-.682 3.608 3.881 8.582 5.301 23.375-.267 37.102-5.452 13.443-16.694 23.843-32.511 30.077-20.646 8.137-32.24 1.819-37.314-2.671-6.662-5.895-9.694-15.055-7.888-23.594a5.493 5.493 0 0 0-2.76-.711z" fill="#25242e"/><path d="m743.147 329.896 32.825-16.56 58.484 115.93-32.824 16.56z" fill="#f0e760"/><path d="m736.282 287.917 65.066 12.648-25.354 12.79 58.483 115.934c67.645 42.981 81.424-41.153 111.318-57.385 75.962-41.248 78.827-145.656-10.807-173.384-81.969-25.357-142.851-42.766-192.917-53.234-32.202-6.733-71.147-5.84-116.615 8.797z" fill="#f0e760"/><path d="M801.653 447.348a1.502 1.502 0 0 1-.677-2.84l31.486-15.884-57.132-113.255-31.487 15.884a1.5 1.5 0 1 1-1.351-2.679l32.826-16.559a1.498 1.498 0 0 1 2.015.664l58.483 115.934a1.5 1.5 0 0 1-.664 2.015l-32.826 16.559a1.487 1.487 0 0 1-.673.161zm-.303-145.283c-.095 0-.191-.009-.288-.028l-96.625-18.782a1.5 1.5 0 1 1 .573-2.945l96.625 18.782a1.5 1.5 0 0 1-.285 2.973z" fill="#25242e"/><path d="m274.156 543.195-37.168-5.157 19.628-125.555 37.003 4.351z" fill="#f0e760"/><g fill="#25242e"><path d="M753.193 292.536a1.5 1.5 0 0 1-1.432-1.056c-5.182-16.724-6.66-45.36-3.855-74.734 2.999-31.403 10-55.664 19.209-66.561a1.5 1.5 0 1 1 2.291 1.937c-8.695 10.288-15.616 34.554-18.514 64.91-2.77 29.004-1.339 57.191 3.734 73.561a1.5 1.5 0 0 1-1.433 1.943zM274.158 544.695a1.5 1.5 0 0 1-1.484-1.729l19.463-126.361a1.5 1.5 0 0 1 2.965.457l-19.463 126.361a1.501 1.501 0 0 1-1.481 1.272zm267.693-129.834c-.4 0-.798-.159-1.094-.473-22.408-23.853-35.215-38.536-38.064-43.643-4.074-7.3-8.88-27.789-12.244-52.199a1.5 1.5 0 1 1 2.972-.41c3.771 27.371 8.69 45.41 11.892 51.146 2.692 4.823 15.704 19.71 37.631 43.051a1.5 1.5 0 0 1-1.093 2.528zm12.285 12.983a1.5 1.5 0 0 1-.102-2.997l20.94-1.444a1.5 1.5 0 0 1 .207 2.993l-20.94 1.444c-.035.003-.07.004-.105.004zm221.86-112.989a1.502 1.502 0 0 1-.677-2.84l94.063-47.45a1.5 1.5 0 1 1 1.351 2.679l-94.063 47.45a1.494 1.494 0 0 1-.674.161zm-81.212 467.388a1.5 1.5 0 0 1-1.19-2.412l31.044-40.542a1.5 1.5 0 0 1 2.382 1.824l-31.044 40.542a1.499 1.499 0 0 1-1.192.588zm-273.528-348.22c-.067 0-.135-.005-.204-.014l-37.116-5.045a1.502 1.502 0 0 1-.162-2.942l26.152-6.542a1.5 1.5 0 0 1 .728 2.91l-18.59 4.651 29.393 3.995a1.5 1.5 0 0 1-.201 2.987zm448.156 8.763c-10.994 0-23-4.124-35.947-12.375a1.5 1.5 0 0 1 1.612-2.53c24.432 15.569 45.227 15.786 61.807.643a1.5 1.5 0 1 1 2.023 2.215c-8.792 8.03-18.651 12.047-29.495 12.047zM76.734 1099.762H11.203a1.5 1.5 0 0 1 0-3h65.472l170.086-13.535a1.5 1.5 0 0 1 .238 2.99l-170.145 13.54c-.041.004-.08.005-.12.005zm860.67.001h-58.522a1.5 1.5 0 0 1 0-3h58.522c9.406 0 18.167-5.062 22.863-13.211l82.583-143.282a1.5 1.5 0 0 1 2.6 1.498l-82.583 143.282c-5.231 9.076-14.988 14.713-25.463 14.713z"/></g></svg></g><g transform="translate(1264.0 79.0) rotate(29.9173144331939 84.5 144.5) scale(0.3254261831359916 0.3228974515681755)"><svg width="519.319" height="895.021" viewBox="0 0 519.319 895.021"><path d="M471.638 895.021H47.681C21.347 895.021 0 873.674 0 847.34V47.681C0 21.347 21.347 0 47.681 0h423.957c26.333 0 47.681 21.347 47.681 47.681v799.66c0 26.333-21.347 47.68-47.681 47.68z" fill="#25242e"/><path d="M467.872 873.191H51.447c-17.626 0-31.915-14.289-31.915-31.915V53.745c0-17.626 14.289-31.915 31.915-31.915h416.426c17.626 0 31.915 14.289 31.915 31.915v787.532c-.001 17.626-14.29 31.914-31.916 31.914z" fill="#fff"/><path d="M300.21 77.979h-83.347c-10.576 0-19.149-8.573-19.149-19.149s8.573-19.149 19.149-19.149h83.347c10.576 0 19.149 8.573 19.149 19.149 0 10.575-8.573 19.149-19.149 19.149z" fill="#25242e"/></svg></g><g transform="translate(1373.0 286.0) rotate(0.0 22.0 32.5) scale(0.9824060016075735 0.9734181954324223)"><svg width="44.788" height="66.775" viewBox="0 0 44.788 66.775"><g><g><g><g><path style="fill:#fac0c3" d="M42.27 66.775c5.201-13.82 1.632-28.247-4.254-45.14-10.6-30.434-41.14-24.256-35.979 4.298.766 4.24 2.511 10.05 5.261 20.65C8.333 47.67 37.354 64.888 42.27 66.775z"/></g><path style="fill:#25242e" d="M5.184 44.423a1232.97 1232.97 0 0 0-1.753-6.583c-1.414-5.27-2.348-8.752-2.87-11.639-1.941-10.738.958-22.85 11.81-25.702C21.139-1.806 33.348 3.67 39.434 21.14c1.326 3.806 2.346 6.944 3.21 9.876a1.5 1.5 0 1 1-2.878.848c-.849-2.883-1.855-5.977-3.165-9.737C31.142 6.457 20.613 1.434 13.133 3.4 4.135 5.765 1.818 16.288 3.513 25.667c.5 2.764 1.421 6.197 2.815 11.395.696 2.594 1.503 5.602 2.422 9.145a1.5 1.5 0 0 1-1.898 1.809c-.909-.288-1.334-2.533-1.668-3.593z"/></g></g></g></svg></g><g transform="translate(176.0 766.0) rotate(-5.964114269475684 68.0 116.5) scale(0.2618814254822181 0.2603290872504668)"><svg width="519.319" height="895.021" viewBox="0 0 519.319 895.021"><path d="M471.638 895.021H47.681C21.347 895.021 0 873.674 0 847.34V47.681C0 21.347 21.347 0 47.681 0h423.957c26.333 0 47.681 21.347 47.681 47.681v799.66c0 26.333-21.347 47.68-47.681 47.68z" fill="#25242e"/><path d="M467.872 873.191H51.447c-17.626 0-31.915-14.289-31.915-31.915V53.745c0-17.626 14.289-31.915 31.915-31.915h416.426c17.626 0 31.915 14.289 31.915 31.915v787.532c-.001 17.626-14.29 31.914-31.916 31.914z" fill="#fff"/><path d="M300.21 77.979h-83.347c-10.576 0-19.149-8.573-19.149-19.149s8.573-19.149 19.149-19.149h83.347c10.576 0 19.149 8.573 19.149 19.149 0 10.575-8.573 19.149-19.149 19.149z" fill="#25242e"/></svg></g><g transform="translate(206.0 825.0) rotate(-10.093291326353668 41.5 64.0) scale(0.644244875148448 0.6443915282651268)"><svg width="128.833" height="198.637" viewBox="0 0 128.833 198.637"><g fill="#3AC5C9"><path d="M79.416 146.811h-30V98.833h15c18.977 0 34.416-15.438 34.416-34.416S83.394 30 64.416 30 30 45.439 30 64.417H0C0 28.897 28.897 0 64.416 0s64.416 28.897 64.416 64.417c0 30.357-21.106 55.877-49.416 62.653z"/><circle cx="64.416" cy="182.356" r="16.281"/></g></svg></g><g transform="translate(150.0 836.0) rotate(-8.84205629195054 91.5 53.0) scale(1.6742603063072954 1.6620411747181585)"><svg width="109.302" height="63.777" viewBox="0 0 109.302 63.777"><path d="M107.919 16.631c-2.47-1.67-5.406-3.082-12.023-4.809-11.622-3.033-13.912-1.636-22.845-3.607C57.656 4.818 49.179-2.702 45.397 1c-.695.68-.915 1.429-1.202 2.405-1.794 6.093 3.38 13.321 7.214 16.833 12.075 11.06 22.41 3.213 25.61 10.872 1.936 4.634 8.154 11.154 13 16 1 1 2.81 2.207 4 3 4.201 2.802 19.999-29.357 13.9-33.479zM2.769 14.584c5.074 10.395 32.657 10.123 34.505 4.377 1.293-4.021-9.576-12.08-19.967-14.215-2.393-.492-11.384-2.339-14.431 2.063-1.55 2.24-1.189 5.56-.107 7.775z" fill="#e2957a"/><path d="M24.343 23.919c-8.172 0-19.211-2.212-22.473-8.896C.657 12.536.243 8.857 2.054 6.24c2.271-3.283 7.471-4.115 15.455-2.474 8.914 1.832 17.564 7.622 20.051 11.881.784 1.342 1.008 2.56.667 3.62-1.12 3.48-8.035 4.342-10.956 4.551-.916.066-1.9.101-2.928.101zM3.667 14.145c2.866 5.873 14.231 8.34 23.46 7.678 5.75-.411 8.796-1.931 9.194-3.168.199-.619-.156-1.429-.49-2-2.223-3.807-10.46-9.232-18.726-10.93C8.233 3.902 4.918 5.618 3.698 7.379c-1.283 1.854-.987 4.807-.031 6.766z" fill="#1d0333"/><path d="M2.044 30.25c5.481 10.733 34.257 9.464 36.139 3.213 1.288-4.278-9.634-12.178-19.85-14.356-2.33-.497-12.61-2.688-16.12 2.409-1.71 2.482-1.468 6.191-.169 8.734z" fill="#e2957a"/><path d="M22.766 39.253c-8.943 0-18.522-2.495-21.613-8.547-1.33-2.604-1.823-6.767.235-9.756 1.774-2.576 6.191-5.155 17.152-2.82 7.987 1.702 17.084 7.114 19.866 11.816.826 1.397 1.073 2.678.733 3.806-1.211 4.023-9.614 5.084-12.161 5.314a47.167 47.167 0 0 1-4.212.187zM10.887 19.219c-3.838 0-6.544.967-7.851 2.864-1.523 2.211-1.204 5.553-.102 7.712 3.022 5.918 14.297 8.14 23.866 7.278 6.534-.589 9.984-2.434 10.425-3.898.214-.711-.175-1.595-.54-2.211-2.216-3.746-10.384-9.135-18.561-10.879-2.719-.579-5.146-.866-7.237-.866z" fill="#1d0333"/><path d="M2.71 43.414c4.947 10.291 32.157 9.868 34.012 4.154 1.298-3.999-9.379-11.939-19.617-14.001-2.358-.475-11.216-2.259-14.246 2.129-1.542 2.231-1.204 5.525-.149 7.718z" fill="#e2957a"/><path d="M23.541 52.578c-9.127 0-18.89-2.818-21.732-8.73-1.184-2.463-1.572-6.114.228-8.72C4.295 31.855 9.43 31 17.302 32.586c8.741 1.76 17.246 7.445 19.704 11.65.789 1.348 1.012 2.573.666 3.64-1.153 3.552-8.244 4.404-11.239 4.605-.95.065-1.918.097-2.892.097zm-19.93-9.597c2.731 5.682 13.732 8.105 22.688 7.506 5.917-.398 9.057-1.952 9.471-3.228.203-.624-.155-1.439-.49-2.013-2.194-3.752-10.279-9.069-18.373-10.699-8.733-1.76-12.014-.038-13.226 1.717-1.336 1.935-.973 4.838-.07 6.717z" fill="#1d0333"/><path d="M5.928 55.392c4.476 9.311 29.095 8.929 30.773 3.758 1.174-3.618-8.486-10.802-17.748-12.668-2.133-.43-10.148-2.044-12.889 1.926-1.396 2.02-1.09 5-.136 6.984z" fill="#e2957a"/><g fill="#1d0333"><path d="M24.692 63.781c-8.07 0-16.973-2.355-19.666-7.956-1.082-2.252-1.436-5.595.214-7.985 2.068-2.994 6.749-3.78 13.909-2.338 7.19 1.448 15.383 6.296 17.892 10.586.728 1.244.933 2.378.611 3.371-1.061 3.269-7.523 4.049-10.252 4.232-.885.06-1.792.09-2.708.09zM6.829 54.959c2.454 5.104 12.357 7.281 20.437 6.737 5.308-.357 8.119-1.73 8.484-2.854.137-.42-.014-1.023-.435-1.743-1.975-3.377-9.261-8.165-16.56-9.635-7.853-1.581-10.789-.05-11.869 1.514-1.135 1.642-.888 4.252-.057 5.981zm83.054-7.27a.99.99 0 0 1-.569-.179 38.992 38.992 0 0 1-14.546-18.988c-4.002.326-16.628.508-25.294-8.806-2.908-3.127-5.008-6.905-6.241-11.228a1 1 0 1 1 1.923-.548c1.146 4.017 3.091 7.521 5.783 10.414 8.717 9.371 21.856 8.395 24.404 8.104.468-.053.912.229 1.062.677a37.018 37.018 0 0 0 14.05 18.733 1 1 0 0 1-.572 1.821z"/></g></svg></g><g transform="translate(1289.0 149.0) rotate(30.61735085831328 54.0 83.0) scale(0.8382945363377395 0.8356952632188364)"><svg width="128.833" height="198.637" viewBox="0 0 128.833 198.637"><g fill="#3AC5C9"><path d="M79.416 146.811h-30V98.833h15c18.977 0 34.416-15.438 34.416-34.416S83.394 30 64.416 30 30 45.439 30 64.417H0C0 28.897 28.897 0 64.416 0s64.416 28.897 64.416 64.417c0 30.357-21.106 55.877-49.416 62.653z"/><circle cx="64.416" cy="182.356" r="16.281"/></g></svg></g></svg>