<svg xmlns="http://www.w3.org/2000/svg" viewBox="0 0 1600 1600" width="1600" height="1600"><path fill="#FFF" d="M0 0h1600v1600H0z"/><g transform="translate(898.0 489.0) rotate(0.0 305.0 525.5) scale(1.1746152172364193 1.1742741231769982)"><svg width="519.319" height="895.021" viewBox="0 0 519.319 895.021"><path d="M471.638 895.021H47.681C21.347 895.021 0 873.674 0 847.34V47.681C0 21.347 21.347 0 47.681 0h423.957c26.333 0 47.681 21.347 47.681 47.681v799.66c0 26.333-21.347 47.68-47.681 47.68z" fill="#25242e"/><path d="M467.872 873.191H51.447c-17.626 0-31.915-14.289-31.915-31.915V53.745c0-17.626 14.289-31.915 31.915-31.915h416.426c17.626 0 31.915 14.289 31.915 31.915v787.532c-.001 17.626-14.29 31.914-31.916 31.914z" fill="#fff"/><path d="M300.21 77.979h-83.347c-10.576 0-19.149-8.573-19.149-19.149s8.573-19.149 19.149-19.149h83.347c10.576 0 19.149 8.573 19.149 19.149 0 10.575-8.573 19.149-19.149 19.149z" fill="#25242e"/></svg></g><g transform="translate(959.0 1157.0) rotate(0.0 243.5 45.0) scale(0.8311090783734153 0.8389652761594033)"><svg width="585.964" height="107.275" viewBox="0 0 585.964 107.275"><g fill="#f0e760"><path d="m73.826 35.313 38.97 5.662-28.199 27.488 6.657 38.812L56.398 88.95l-34.856 18.325 6.657-38.812L0 40.975l38.97-5.662L56.398 0zm118.292 0 38.97 5.662-28.199 27.488 6.657 38.812L174.69 88.95l-34.856 18.325 6.657-38.812-28.199-27.488 38.97-5.662L174.69 0zm118.292 0 38.97 5.662-28.199 27.488 6.657 38.812-34.856-18.325-34.856 18.325 6.657-38.812-28.199-27.488 38.97-5.662L292.982 0zm118.292 0 38.97 5.662-28.199 27.488 6.657 38.812-34.856-18.325-34.856 18.325 6.657-38.812-28.199-27.488 38.97-5.662L411.274 0zm118.292 0 38.97 5.662-28.199 27.488 6.657 38.812-34.856-18.325-34.855 18.325 6.656-38.812-28.198-27.488 38.969-5.662L529.566 0z"/></g></svg></g><g transform="translate(51.0 90.0) rotate(0.0 534.5 725.0) scale(0.9985334915045256 0.9995340103510364)"><svg width="1070.57" height="1450.676" viewBox="0 0 1070.57 1450.676"><path d="M801.514 491.554c31.243 23.441 86.44-149.604 53.084-164.47-33.357-14.866-79.009 145.018-53.084 164.47z" fill="#f0e760"/><path d="M442.635 86.85c-5.307-21.671 17.176-79.233 79.261-83.51 32.145-2.214 62.826 16.214 67.238 59.192-36.504-22.059-111.696-9.142-146.5 24.318" fill="#f05467"/><path d="M589.841 80.465c1.434-45.007-19.361-77.821-67.869-75.733-50.19 2.16-71.148 37.413-69.523 81.647-11.867-14.658-29.86-1.804-29.166 14.178.514 11.825 13.666 23.504 32.701 15.728 13.444 38.603 51.931 53.627 92.486 47.234 40.78-6.428 69.152-51.102 41.37-83.054z" fill="#eda38c"/><path d="M531.067 110.585c-1.479-11.412 22.969-14.287 23.448-2.768 2.55 4.56-.356 12.35-8.917 13.969-8.252 1.561-17.128-4.81-14.531-11.201z" fill="#c27065"/><path d="M435.241 105.756a1.5 1.5 0 0 1-1.052-2.569l11.05-10.869a1.501 1.501 0 0 1 2.104 2.139l-11.05 10.869a1.497 1.497 0 0 1-1.052.431zm17.208-19.377c3.609 13.118 16.887 12.045 11.909-21.735-6.505-1.256-14.637 9.926-16.476 17.56l4.567 4.176z" fill="#25242e"/><path d="M445.616 105.309c-.382 0-.764-.145-1.056-.435l-10.857-10.769a1.501 1.501 0 0 1 2.112-2.131l10.857 10.769a1.501 1.501 0 0 1-1.056 2.565z" fill="#25242e"/><path d="M589.134 62.532C584.722 19.554 559.979-1.103 518.275.045c-49.729 1.369-68.963 39.98-73.026 61.273-1.616 8.473.403 18.898 2.634 20.886 47.688-52.219 134.433-55.092 141.251-19.672z" fill="#f05467"/><path d="M534.724 112.184c-7.873 0-14.804-1.271-18.966-3.488a1.5 1.5 0 0 1 1.411-2.648c8.173 4.357 28.558 4.519 43.605-1.783a1.5 1.5 0 0 1 1.159 2.768c-8.56 3.584-18.465 5.152-27.208 5.152z" fill="#25242e"/><path d="M589.135 62.532c90.384-65.695-57.724-89.382-123.711 3.809 49.617-41.718 122.636-45.931 123.711-3.809z" fill="#f05467"/><path d="M493.265 93.87a1.5 1.5 0 0 1-1.238-2.346c3.968-5.816 9.732-9.798 15.815-10.921 5.572-1.033 11.314.369 16.608 4.045a1.501 1.501 0 0 1-1.711 2.465c-4.688-3.255-9.515-4.454-14.352-3.56-5.301.979-10.361 4.501-13.881 9.662a1.5 1.5 0 0 1-1.241.654zm55.581-3.902a1.5 1.5 0 0 1-1.274-2.29c3.569-5.765 8.84-9.666 14.459-10.704 5.165-.955 10.517.539 15.477 4.317a1.5 1.5 0 0 1-1.818 2.387c-4.33-3.299-8.742-4.563-13.114-3.754-4.79.885-9.329 4.286-12.453 9.334a1.5 1.5 0 0 1-1.277.71z" fill="#25242e"/><path d="M518.37 84.545a1.5 1.5 0 0 1-1.491-1.686c.708-5.681-.393-11.113-3.098-15.299a1.5 1.5 0 0 1 2.519-1.629c3.088 4.776 4.351 10.92 3.556 17.299a1.5 1.5 0 0 1-1.487 1.314zm53.521-3.486a1.499 1.499 0 0 1-1.485-1.723c1.048-6.977.007-9.776-2.66-15.988a1.5 1.5 0 1 1 2.756-1.184c2.76 6.428 4.036 9.862 2.871 17.617a1.5 1.5 0 0 1-1.481 1.277zm-93.037-29.523a1.5 1.5 0 0 1-1.085-2.535 148.855 148.855 0 0 1 19.993-17.497 1.5 1.5 0 1 1 1.767 2.424 145.92 145.92 0 0 0-19.59 17.144c-.295.31-.69.465-1.085.465zm110.282 12.496a1.498 1.498 0 0 1-.883-2.713c23.175-16.845 32.501-32.596 25.586-43.213C602.822 1.19 555.156.709 512.486 25.48a1.5 1.5 0 0 1-1.506-2.594c20.441-11.868 43.333-18.858 64.46-19.685 19.706-.778 35 4.188 40.913 13.268 4.644 7.131 7.399 22.756-26.336 47.275a1.49 1.49 0 0 1-.881.287z" fill="#25242e"/><path d="m915.256 208.136-60.658 118.949-77.357-67.067c-69.936-35.634-149.588 29.711-119.352 66.13 29 33.841 54.922 57.674 114.827 111.613 25.855 23.28 124.744 86.327 183.552-22.038 45.96-84.692 71.336-156.176 71.336-156.176l-112.348-51.41z" fill="#eda38c"/><path d="M1022.279 273.698c22.866-47.629 38.257-123.657 38.257-123.657-3.439-.002-62.9-5.857-94.044-5.646-21.186.143-43.283 15.856-47.661 31.279-4.596 16.189-5.509 36.249-5.509 36.249 36.916 34.478 60.449 83.724 108.956 61.774z" fill="#eda38c"/><path d="M918.832 175.675c11.872-39.726 16.146-50.418 14.686-74.695-1.716-28.543 34.301-39.856 38.649 0 2.94 26.95.433 41.312-2.875 55.825-4.222 18.518-58.823 46.856-50.46 18.87z" fill="#eda38c"/><path d="M981.379 183.335a1.5 1.5 0 0 1-1.496-1.632c1.015-11.509-4.872-20.989-11.15-23.506a1.5 1.5 0 0 1-.899-1.749c1.505-6.149 6.157-28.312 2.844-55.286a1.501 1.501 0 0 1 2.978-.365c3.187 25.94-.865 47.541-2.621 55.158 6.756 3.482 12.953 13.364 11.837 26.012a1.5 1.5 0 0 1-1.492 1.368z" fill="#25242e"/><path d="M1012.37 175.675c45.75-2.75 57.28-18.163 57.071-28.397-.426-20.804-28.025-22.801-43.566-22.481-28.783.593-36.782 12.866-36.576 22.952.281 13.702 21.027 21.087 50.281 18.984l-27.209 8.943z" fill="#eda38c"/><path d="M1012.37 177.175a1.5 1.5 0 0 1-.468-2.925l17.231-5.663c-16.366-.109-29.197-3.52-36.011-9.732-3.446-3.142-5.236-6.867-5.323-11.075-.069-3.345.679-6.521 2.221-9.441a1.499 1.499 0 1 1 2.653 1.4c-1.302 2.466-1.932 5.15-1.874 7.98.069 3.353 1.531 6.354 4.344 8.919 7.503 6.841 24.074 10.056 44.329 8.599.764-.064 1.433.463 1.579 1.206s-.284 1.479-1.003 1.715l-27.209 8.942a1.474 1.474 0 0 1-.469.075z" fill="#25242e"/><path d="M1013.489 209.53c45.75-2.75 57.495-18.169 57.071-28.397-.877-21.101-30.066-21.638-43.967-21.461-32.245.411-36.841 14.372-36.175 21.932 1.106 12.555 21.027 21.087 50.281 18.984l-27.209 8.943z" fill="#eda38c"/><path d="M1013.488 211.03a1.5 1.5 0 0 1-.468-2.925l17.375-5.711c-23.833-.345-40.384-8.301-41.472-20.659-.246-2.789.021-8.219 4.565-13.245 6.006-6.644 17.138-10.115 33.085-10.318 12.841-.164 30.958.682 40.005 9.863a1.5 1.5 0 1 1-2.137 2.105c-9.196-9.333-29.997-9.064-37.83-8.969-14.866.189-25.551 3.416-30.898 9.331-3.78 4.181-4.005 8.667-3.802 10.969 1.071 12.16 21.543 19.567 48.679 17.619a1.488 1.488 0 0 1 1.579 1.206 1.5 1.5 0 0 1-1.003 1.715l-27.209 8.943a1.47 1.47 0 0 1-.469.075z" fill="#25242e"/><path d="M1010.752 243.718c45.75-2.75 57.495-18.169 57.071-28.397-.877-21.101-28.059-22.803-43.714-22.478-33.481.694-37.015 15.384-36.428 22.949 1.057 13.613 21.027 21.087 50.281 18.984l-27.209 8.943z" fill="#eda38c"/><path d="M1010.752 245.218a1.5 1.5 0 0 1-.468-2.925l17.248-5.669c-24.482-.189-40.352-7.915-41.346-20.716-.288-3.715.303-9.175 4.759-14.091 5.998-6.619 17.146-10.143 33.134-10.475 20.219-.42 33.86 3.371 40.526 11.263a1.5 1.5 0 1 1-2.292 1.935c-6.053-7.166-18.892-10.595-38.172-10.198-15.13.313-25.551 3.506-30.973 9.489-3.738 4.124-4.233 8.717-3.99 11.844.975 12.553 20.539 19.63 48.678 17.604a1.5 1.5 0 0 1 .576 2.921l-27.209 8.942a1.474 1.474 0 0 1-.469.075z" fill="#25242e"/><path d="M1016.927 275.451c45.75-2.75 48.778-17.907 48.572-28.142-.372-18.46-27.644-22.719-41.546-22.523-32.671.461-37.233 14.88-36.521 23.144 1.168 13.548 18.951 20.937 48.205 18.834l-19.856.381z" fill="#eda38c"/><path d="M1026.092 268.621c-24.227 0-39.021-7.426-40.154-20.562-.265-3.067.008-9.006 4.808-14.313 6.075-6.716 17.24-10.234 33.186-10.46 3.004-.05 29.651-.022 39.607 13.63a1.5 1.5 0 0 1-2.424 1.768c-7.364-10.098-26.815-12.558-37.141-12.397-15.079.213-25.51 3.399-31.004 9.473-4.037 4.463-4.266 9.46-4.044 12.042 1.101 12.761 18.958 19.45 46.603 17.466a1.502 1.502 0 0 1 .216 2.993c-3.363.242-6.584.361-9.653.361z" fill="#25242e"/><path d="m854.598 327.084-77.357-67.067c-69.936-35.634-154.421 67.494-124.185 103.913 29.245 29.698 91.615 83.541 148.459 127.625-17.377-44.672 53.084-164.47 53.084-164.47z" fill="#f0e760"/><path d="m743.556 548.551-23.753 816.601s-139.812 57.134-125.803-3.448c-5.861-27.377-24.562-129.563-24.562-129.563-26.657-166.122-14.171-226.587-14.919-291.294-.652-56.365-10.214-254.809-5.624-364.694 5.504-131.747 194.662-27.602 194.662-27.602z" fill="#eda38c"/><path d="M396.977 563.07 145.81 1310.531s3.284 119.008 108.058 60.262c15.032-23.62 81.467-139.22 81.467-139.22 82.863-146.427 92.225-207.454 115.47-267.846 20.248-52.607 98.348-235.286 132.329-339.886 40.741-125.41-186.157-60.772-186.157-60.772z" fill="#eda38c"/><path d="m743.556 548.551-10.962 376.848-238.174-1.542c6.894-65.536 18.767-181.532 31.941-289.671 15.946-130.894 217.194-85.634 217.194-85.634z" fill="#24968B"/><path d="M396.977 563.07 296.262 862.792 510.32 951.62s49.377-196.75 83.358-301.35c40.741-125.41-196.701-87.201-196.701-87.201z" fill="#24968B"/><path d="M581.604 1297.789c8.93-.367 135.036-2.916 140.252-3.222 12.821-.753 11.289 14.821-.424 14.574l-1.629 56.01c-47.187 42.572-90.326 51.449-125.804-3.448l-9.408-48.055c-13.446.591-14.978-15.366-2.988-15.859z" fill="#fff"/><path d="M650.836 1401.513c-2.41 0-4.787-.155-7.14-.467-18.907-2.501-36.051-15.464-50.957-38.528a1.479 1.479 0 0 1-.212-.526l-9.169-46.835c-4.341-.135-7.9-1.944-9.889-5.07-1.766-2.775-1.969-6.209-.531-8.962 1.521-2.909 4.656-4.671 8.604-4.834 4.359-.179 35.68-.857 68.84-1.575 33.792-.732 68.734-1.489 71.385-1.645 5.835-.347 8.412 2.354 9.429 3.994 1.558 2.509 1.55 5.779-.021 8.535-1.632 2.862-4.665 4.666-8.286 4.991l-1.588 54.604c-.012.409-.19.796-.494 1.069-26.217 23.653-49.197 35.247-69.972 35.248zm-55.42-40.382c14.369 22.142 30.744 34.569 48.674 36.94 21.584 2.854 45.871-8.139 74.232-33.605l1.61-55.368c.024-.824.698-1.518 1.531-1.456 3.196.083 5.79-1.218 7.106-3.527 1.025-1.799 1.055-3.894.078-5.468-1.15-1.852-3.532-2.762-6.704-2.582-2.707.159-37.677.917-71.496 1.649-31.685.687-64.449 1.396-68.782 1.574-2.888.118-5.043 1.264-6.068 3.226-.943 1.805-.788 4.089.403 5.962 1.592 2.502 4.694 3.85 8.525 3.674.748-.014 1.395.483 1.538 1.211l9.352 47.771z" fill="#25242e"/><path d="M292.565 1305.401c-4.901-2.39-116.938-53.889-125.612-57.793-10.936-4.922-15.595 7.653-4.707 14.006l-16.437 48.916c-2.338 52.552 30.432 70.054 108.058 60.262l31.596-52.468c13.304 5.305 16.56-8.31 7.101-12.923z" fill="#fff"/><path d="M217.082 1374.894c-26.916 0-45.474-5.323-57.271-16.202-11.405-10.517-16.475-26.292-15.499-48.228.006-.141.032-.278.077-.411l16.06-47.796c-5.805-3.909-6.982-9.547-5.044-13.31 1.703-3.307 6.124-5.427 12.164-2.707 7.192 3.237 120.343 55.223 125.654 57.813 5.703 2.781 7.323 8.482 5.596 12.387-1.451 3.279-5.624 6.089-12.708 3.719l-30.957 51.408a1.5 1.5 0 0 1-1.097.715c-13.767 1.736-26.061 2.612-36.975 2.612zm-69.782-64.086c-.893 20.887 3.865 35.831 14.544 45.678 15.801 14.571 44.761 18.677 91.115 12.91l31.22-51.845a1.495 1.495 0 0 1 1.841-.62c5.83 2.327 9.016.644 10.055-1.705 1.153-2.605-.091-6.488-4.168-8.476-5.304-2.588-118.38-54.538-125.569-57.773-3.736-1.683-6.979-1.153-8.266 1.344-1.367 2.654-.104 7.061 4.931 9.998.615.358.893 1.1.666 1.773z" fill="#25242e"/><path d="m724.908 1352.156 3.622 16.499s51.556 19.754 60.476 23.073c25.659 9.548 36.42 17.043 36.417 38.041h-67.689l-175.378-.177c-.544-20.873 1.132-40.668 8.139-57.881 0 0-6.129-8.078-10.957-14.079-5.855-7.277 6.78-16.277 12.805-5.745 1.776 3.104 3.96 6.955 5.768 10.152 2.281 4.033 6.161 6.94 10.714 8.034l28.638 6.885a48.846 48.846 0 0 0 27.521-1.38l32.446-11.346-2.335-9.018c-1.479-5.715 2.666-11.351 8.639-11.746l8.684-.575c5.919-.392 11.234 3.551 12.488 9.263z" fill="#f05467"/><path d="M779.468 1404.324c-1.352 0-2.719-.155-4.078-.479l-58.667-13.93c-8.508-2.02-15.409-8.394-18.009-16.634l-2.713-8.598a1.5 1.5 0 0 1 2.861-.903l2.713 8.598c2.284 7.239 8.354 12.84 15.841 14.618l58.667 13.93c6.723 1.592 13.701-1.73 16.593-7.911a1.5 1.5 0 0 1 2.717 1.271c-2.905 6.21-9.22 10.036-15.925 10.036zm-159.518 13.494c-10.902 0-19.771-8.748-19.771-19.5s8.869-19.5 19.771-19.5 19.771 8.748 19.771 19.5-8.869 19.5-19.771 19.5zm0-36c-9.248 0-16.771 7.402-16.771 16.5s7.523 16.5 16.771 16.5 16.771-7.402 16.771-16.5-7.524-16.5-16.771-16.5z" fill="#25242e"/><path d="M824.836 1449.176h-67.101l-173.785-.061c-5.422-.423-9.47-5.097-9.04-10.439.43-5.342 5.174-9.329 10.597-8.906h239.329c5.439 0 9.849 4.344 9.849 9.703 0 5.359-4.41 9.703-9.849 9.703z" fill="#fff"/><path d="M824.836 1450.676h-67.101l-173.786-.061c-.039 0-.078-.002-.116-.005a11.317 11.317 0 0 1-7.786-3.952 11.043 11.043 0 0 1-2.632-8.103c.494-6.136 5.936-10.733 12.148-10.286h239.273c6.258 0 11.349 5.025 11.349 11.203s-5.091 11.203-11.349 11.203zm-240.825-3.061 173.725.061h67.1c4.604 0 8.349-3.68 8.349-8.203s-3.745-8.203-8.349-8.203H585.507c-.039 0-.078-.002-.117-.005-4.595-.347-8.622 3.021-8.985 7.531a8.064 8.064 0 0 0 1.924 5.915 8.333 8.333 0 0 0 5.682 2.904z" fill="#25242e"/><path d="m136.855 1305.627-9.592 13.905s-55.198-1.206-64.711-1.505c-27.364-.862-40.16 2.007-48.097 21.448l62.664 25.593 162.426 66.146c8.395-19.118 14.328-38.077 14.349-56.661 0 0 8.729-5.161 15.467-8.891 8.171-4.523-.122-17.632-9.683-10.16a2616.193 2616.193 0 0 0-9.179 7.218c-3.637 2.871-8.328 4.095-12.956 3.387l-29.115-4.454a48.843 48.843 0 0 1-24.956-11.684l-25.748-22.772 5.571-7.466c3.53-4.731 1.824-11.516-3.556-14.141l-7.822-3.816c-5.331-2.601-11.743-.961-15.064 3.853z" fill="#f05467"/><path d="M133.995 1343.977c-1.276 0-2.56-.098-3.84-.297l-59.578-9.286c-8.226-1.282-14.494-8.185-14.905-16.412a1.5 1.5 0 0 1 1.423-1.573c.832-.011 1.532.596 1.573 1.423.34 6.815 5.543 12.534 12.37 13.598l59.578 9.286c7.604 1.186 15.34-1.705 20.192-7.543l5.763-6.935a1.5 1.5 0 0 1 2.307 1.918l-5.763 6.935c-4.704 5.66-11.785 8.887-19.121 8.887zm82.763 63.62c-2.558 0-5.12-.499-7.563-1.497-10.093-4.122-14.996-15.574-10.931-25.528 1.971-4.826 5.73-8.583 10.585-10.58 4.847-1.994 10.207-1.993 15.092.003 10.093 4.122 14.996 15.574 10.931 25.528-1.971 4.826-5.73 8.583-10.585 10.58a19.766 19.766 0 0 1-7.528 1.494zm-.381-36.099c-2.169 0-4.332.423-6.387 1.268-4.106 1.689-7.284 4.864-8.949 8.94-3.44 8.423.726 18.119 9.288 21.616 4.151 1.696 8.703 1.696 12.816.006 4.106-1.689 7.284-4.864 8.949-8.94 3.44-8.423-.726-18.119-9.288-21.616a16.977 16.977 0 0 0-6.429-1.273z" fill="#25242e"/><path d="m7.662 1357.662 62.12 25.371 160.907 65.652c5.18 1.658 10.694-1.138 12.316-6.246 1.622-5.108-1.263-10.593-6.443-12.251L76.58 1364.849l-61.581-25.151c-5.036-2.057-10.76.298-12.786 5.259s.414 10.65 5.449 12.706z" fill="#fff"/><path d="M233.742 1450.666c-1.175 0-2.356-.184-3.51-.553a1.422 1.422 0 0 1-.109-.04l-160.907-65.652-62.12-25.37c-5.793-2.366-8.606-8.944-6.271-14.663 2.336-5.719 8.949-8.445 14.742-6.079l221.511 90.469c5.921 1.93 9.22 8.248 7.357 14.115a11.042 11.042 0 0 1-5.5 6.506 11.281 11.281 0 0 1-5.192 1.268zm-2.542-3.394a8.339 8.339 0 0 0 6.358-.539 8.067 8.067 0 0 0 4.018-4.749c1.369-4.313-1.084-8.964-5.47-10.368a1.445 1.445 0 0 1-.11-.04l-221.564-90.49c-4.262-1.739-9.121.251-10.831 4.437-1.71 4.188.366 9.011 4.628 10.751l62.12 25.37 160.851 65.629z" fill="#25242e"/><path d="m407.71 528.861-10.733 34.209c121.925 40.906 242.093 50.809 346.579-14.519z" fill="#24968B"/><path d="M777.24 260.017c-62.605-51.182-107.797-70.714-176.309-74.605-37.488-2.129-109.956 3.508-156.267 15.38-39.894 10.227-74.328 27.191-130.991 59.177l92.273 94.104 247.896-36.115 123.397-57.942z" fill="#f0e760"/><path d="m709.499 305.666-49.04-34.026-178.761 26.772-100.64 77.845 26.651 160.828 328.71-25.545c40.538-54.189-2.412-79.536-14.126-134.577-10.973-51.564-11.196-66.527-12.795-71.297z" fill="#f0e760"/><path d="M725.8 486.24s19.532 38.721 17.757 62.311l-335.846-11.466 318.09-50.846z" fill="#f0e760"/><path d="M407.708 538.585a1.5 1.5 0 0 1-.115-2.995l328.71-25.545c.825-.101 1.548.553 1.612 1.379s-.553 1.548-1.379 1.611l-328.71 25.545c-.04.004-.079.005-.118.005z" fill="#25242e"/><path d="M472.129 198.683c45.549 17.943 154.566 70.682 154.566 70.682l-51.904 72.577s-147.926-74.699-211.555-105.133c-22.533-10.778 66.057-55.001 108.893-38.127z" fill="#fff"/><path d="M574.79 343.442a1.49 1.49 0 0 1-.675-.161c-1.479-.747-148.64-75.039-211.527-105.118-4.055-1.939-5.429-5.237-3.77-9.049 3.701-8.499 22.579-19.876 45.906-27.666 27.005-9.019 51.773-10.535 67.953-4.161 45.08 17.759 153.579 70.2 154.669 70.728a1.503 1.503 0 0 1 .567 2.223l-51.904 72.576c-.29.406-.75.628-1.221.628zM449.011 196.383c-12.749 0-27.627 2.664-43.336 7.91-21.865 7.302-40.827 18.487-44.106 26.019-.719 1.652-1.007 3.556 2.313 5.144 59.963 28.682 196.473 97.522 210.436 104.567l50.12-70.082c-13.68-6.596-110.887-53.329-152.859-69.863-6.273-2.471-13.933-3.694-22.568-3.694z" fill="#25242e"/><path d="M533.521 254.792s69.937-60.702 86.369-71.802c16.128-10.895 111.732 21.13 96.97 37.755-14.762 16.624-115.798 94.633-115.798 94.633z" fill="#fff"/><path d="M601.062 316.878c-.359 0-.718-.129-1.002-.384l-67.541-60.586a1.498 1.498 0 0 1 .019-2.249c2.858-2.481 70.193-60.889 86.512-71.912 7.754-5.239 30.209-1.272 48.638 4.188 17.389 5.151 40.668 14.563 49.05 24.13 4.766 5.44 3.307 9.353 1.244 11.677-14.686 16.539-111.873 91.636-116.003 94.824a1.498 1.498 0 0 1-.917.313zm-65.273-62.066 65.344 58.615c10.503-8.129 100.882-78.223 114.605-93.678 1.188-1.337 2.349-3.592-1.257-7.708-6.551-7.478-25.253-16.596-47.645-23.229-21.989-6.516-40.517-8.356-46.106-4.578-14.945 10.096-75.333 62.261-84.94 70.578z" fill="#25242e"/><path d="m521.4 214.588 59.754-6.45c17.957-1.938 34.691 9.367 39.595 26.75l32.006 113.463-121.521 20.947-17.575-144.964a8.743 8.743 0 0 1 7.741-9.745z" fill="#fff"/><path d="M531.234 370.797a1.503 1.503 0 0 1-1.49-1.319L512.17 224.514c-.333-2.741.43-5.441 2.148-7.604s4.176-3.517 6.921-3.813l59.754-6.45a38.403 38.403 0 0 1 41.199 27.834l32.006 113.463a1.5 1.5 0 0 1-1.189 1.886l-121.521 20.946c-.085.015-.17.021-.255.021zm-9.672-154.718a7.196 7.196 0 0 0-4.894 2.696 7.193 7.193 0 0 0-1.519 5.377l17.385 143.398 118.326-20.396-31.554-111.86a35.425 35.425 0 0 0-37.99-25.666l-59.754 6.45z" fill="#25242e"/><path d="m391.034 490.403-91.224-69.584 121.492-66.634s-63.725-111.912-107.627-94.215c-35.488 20.162-40.2 20.373-108.009 63.927-78.913 50.687-89.806 116.487-26.244 171.755 60.339 52.466 143.397 101.881 143.397 101.881l68.216-107.13z" fill="#eda38c"/><path d="M386.544 601.703c-37.022 13.178-63.726-4.169-63.726-4.169-25.701-15.214 33.081-117.509 62.687-112.654 0 0 38.061 103.645 1.039 116.823z" fill="#eda38c"/><path d="M385.505 484.88c58.9-25.599 98.425-17.019 119.887-.161 18.575 14.59 8.93 39.118-17.844 30.694-7.069-2.224-38.303-14.994-70.431 5.511-16.59 10.588-55.315-25.742-31.612-36.044z" fill="#eda38c"/><path d="M402.828 503.012s69.126 18.658 94.526 30.96c35.449 17.17 28.71 47.453-4.123 40.614-43.772-9.117-99.719-31.085-99.719-31.085-20.955-9.487-13.859-41.043 9.316-40.489z" fill="#eda38c"/><path d="M458.38 520.944c-.153 0-.308-.023-.461-.072-26.756-8.643-55.198-16.335-55.482-16.411-.8-.216-1.273-1.039-1.057-1.839s1.039-1.278 1.839-1.058c.285.077 28.795 7.787 55.622 16.452a1.5 1.5 0 0 1-.46 2.928z" fill="#25242e"/><path d="M397.784 526.946s75.542 28.079 91.312 35.733c34.759 16.871 25.231 48.873-6.379 40.142-47.058-12.998-97.227-34.666-97.227-34.666-23.001-7.19-1.777-46.173 12.295-41.21z" fill="#eda38c"/><path d="M507.936 579.941a1.497 1.497 0 0 1-1.287-.728c-3.522-5.861-9.819-11.112-18.208-15.185-15.525-7.536-90.424-35.396-91.179-35.677a1.5 1.5 0 0 1 1.046-2.813c3.087 1.147 75.789 28.191 91.444 35.79 8.914 4.327 15.646 9.978 19.469 16.339a1.5 1.5 0 0 1-1.284 2.273z" fill="#25242e"/><path d="M395.32 559.193c23.979 12.673 50.218 34.395 64.191 53.135s-6.064 36.76-28.615 21.795c-22.551-14.964-41.771-30.331-44.352-32.421-14.505-11.743-16.597-55.919 8.776-42.509z" fill="#eda38c"/><path d="M446.048 598.485c-.384 0-.768-.146-1.061-.439-14.469-14.477-33.299-28.505-50.368-37.526a1.5 1.5 0 0 1 1.402-2.652c17.32 9.153 36.419 23.381 51.088 38.058a1.5 1.5 0 0 1-1.06 2.56z" fill="#25242e"/><path d="m339.459 451.064 76.973-61.301c55.255-55.746-58.857-147.489-102.759-129.792-35.488 20.162-66.21 34.904-123.222 74.516 14.746 14.803 149.008 116.577 149.008 116.577z" fill="#f0e760"/><g fill="#25242e"><path d="M515.91 930.445a1.5 1.5 0 0 1-1.459-1.853c.381-1.576 38.543-158.817 72.153-262.274a1.5 1.5 0 1 1 2.853.928c-33.574 103.348-71.709 260.477-72.09 262.052a1.5 1.5 0 0 1-1.457 1.147z"/><path d="M588.031 668.282a1.5 1.5 0 0 1-.582-2.883l60.732-25.564a1.5 1.5 0 1 1 1.164 2.766l-60.732 25.564c-.19.08-.387.117-.581.117zM387.697 414.148a1.5 1.5 0 0 1-.957-2.656l32.01-26.469a1.5 1.5 0 1 1 1.912 2.312l-32.01 26.469c-.28.231-.618.344-.955.344zm365.596 59.66h-.066a1.5 1.5 0 0 1-1.434-1.563c.868-20.193-6.24-34.688-14.471-51.474-6.287-12.821-12.789-26.079-16.495-43.494-8.526-40.062-10.872-57.521-12-65.91-.323-2.4-.556-4.135-.801-5.417a1.5 1.5 0 0 1 1.191-1.756c.814-.147 1.6.378 1.755 1.191.261 1.364.499 3.133.828 5.582 1.123 8.353 3.459 25.735 11.961 65.685 3.629 17.053 10.047 30.141 16.254 42.798 8.062 16.439 15.676 31.967 14.774 52.924a1.5 1.5 0 0 1-1.497 1.436zm77.144-98.37a1.499 1.499 0 0 1-1.332-2.188l24.159-46.854a1.501 1.501 0 0 1 2.667 1.375l-24.159 46.854a1.499 1.499 0 0 1-1.334.813zm-530.629 46.881c-.317 0-.637-.101-.908-.308l-41.24-31.456a1.5 1.5 0 0 1 1.819-2.385l41.24 31.456a1.5 1.5 0 0 1-.911 2.693zm501.706 70.736a1.498 1.498 0 0 1-1.398-.956c-3.789-9.741-3.796-23.653-.021-41.35a1.5 1.5 0 0 1 2.934.627c-3.651 17.113-3.691 30.449-.118 39.635a1.5 1.5 0 0 1-1.397 2.044zm-446.88 17.919a1.498 1.498 0 0 1-1.131-2.483c10.482-12.065 18.942-18.599 33.523-25.892a1.5 1.5 0 0 1 1.341 2.684c-14.184 7.094-22.41 13.446-32.601 25.175a1.496 1.496 0 0 1-1.133.517zm206.582-145.345a1.5 1.5 0 0 1-1.484-1.296l-4.753-34.655a1.5 1.5 0 1 1 2.972-.408l4.753 34.655a1.5 1.5 0 0 1-1.488 1.704zm34.532-5.952a1.501 1.501 0 0 1-1.462-1.171l-7.498-33.299a1.5 1.5 0 1 1 2.927-.658l7.498 33.299a1.5 1.5 0 0 1-1.465 1.829zm32.544-5.61a1.5 1.5 0 0 1-1.456-1.143l-7.871-32.094a1.5 1.5 0 1 1 2.914-.714l7.871 32.094a1.5 1.5 0 0 1-1.458 1.857zm-40.26 571.896c-.025 0-.05 0-.075-.002a1.5 1.5 0 0 1-1.425-1.571l9.379-191.271a1.5 1.5 0 0 1 2.997.146l-9.379 191.271a1.5 1.5 0 0 1-1.497 1.427zm10.349-211.074c-.025 0-.05 0-.075-.002a1.5 1.5 0 0 1-1.425-1.571l1.314-26.792a1.49 1.49 0 0 1 1.572-1.425 1.5 1.5 0 0 1 1.425 1.571l-1.314 26.792a1.5 1.5 0 0 1-1.497 1.427z"/></g></svg></g><g transform="translate(1123.0 692.0) rotate(0.0 80.0 123.5) scale(1.241917831611466 1.2434742771991119)"><svg width="128.833" height="198.637" viewBox="0 0 128.833 198.637"><g fill="#3AC5C9"><path d="M79.416 146.811h-30V98.833h15c18.977 0 34.416-15.438 34.416-34.416S83.394 30 64.416 30 30 45.439 30 64.417H0C0 28.897 28.897 0 64.416 0s64.416 28.897 64.416 64.417c0 30.357-21.106 55.877-49.416 62.653z"/><circle cx="64.416" cy="182.356" r="16.281"/></g></svg></g><g transform="translate(1063.0 1062.0) rotate(0.0 142.5 23.5) scale(1.0341561829839578 1.0378025083907438)"><svg width="275.587" height="45.288" viewBox="0 0 275.587 45.288"><g><g><path style="fill:#25242e" d="M274.087 3H1.5a1.5 1.5 0 0 1 0-3h272.587a1.5 1.5 0 1 1 0 3zm0 42.288H1.5a1.5 1.5 0 1 1 0-3h272.587a1.5 1.5 0 1 1 0 3z"/></g></g></svg></g></svg>